<svg width="24" height="24" viewBox="0 0 24 24" fill="none" xmlns="http://www.w3.org/2000/svg">
<path d="M20.031 20.7901C20.491 21.2501 21.201 20.5401 20.741 20.0901L16.991 16.3301C18.3064 14.8746 19.0335 12.9819 19.031 11.0201C19.031 6.63006 15.461 3.06006 11.071 3.06006C6.68099 3.06006 3.11099 6.63006 3.11099 11.0201C3.11099 15.4101 6.68099 18.9801 11.071 18.9801C13.051 18.9801 14.881 18.2501 16.281 17.0401L20.031 20.7901ZM4.10999 11.0201C4.10999 7.18006 7.23999 4.06006 11.07 4.06006C14.91 4.06006 18.03 7.18006 18.03 11.0201C18.03 14.8601 14.91 17.9801 11.07 17.9801C7.23999 17.9801 4.10999 14.8601 4.10999 11.0201Z" fill="#C0BDBD"/>
</svg>
