<svg width="24" height="24" viewBox="0 0 24 24" fill="none" xmlns="http://www.w3.org/2000/svg">
<circle cx="12" cy="8" r="3.25" stroke="#307777" stroke-width="1.5" stroke-linecap="round"/>
<path d="M15.0514 7.875C15.3498 7.35821 15.8413 6.98111 16.4177 6.82667C16.9941 6.67222 17.6082 6.75307 18.125 7.05144C18.6418 7.34981 19.0189 7.84125 19.1733 8.41766C19.3278 8.99406 19.2469 9.60821 18.9486 10.125C18.6502 10.6418 18.1587 11.0189 17.5823 11.1733C17.0059 11.3278 16.3918 11.2469 15.875 10.9486C15.3582 10.6502 14.9811 10.1587 14.8267 9.58234C14.6722 9.00594 14.7531 8.39179 15.0514 7.875L15.0514 7.875Z" stroke="#307777" stroke-width="1.5"/>
<path d="M5.05144 7.875C5.34981 7.35821 5.84125 6.98111 6.41766 6.82667C6.99406 6.67222 7.60821 6.75307 8.125 7.05144C8.64179 7.34981 9.01889 7.84125 9.17333 8.41766C9.32778 8.99406 9.24693 9.60821 8.94856 10.125C8.65019 10.6418 8.15875 11.0189 7.58234 11.1733C7.00594 11.3278 6.39179 11.2469 5.875 10.9486C5.35821 10.6502 4.98111 10.1587 4.82667 9.58234C4.67222 9.00594 4.75307 8.39179 5.05144 7.875L5.05144 7.875Z" stroke="#307777" stroke-width="1.5"/>
<path d="M16.8821 18L16.1468 18.1481L16.268 18.75H16.8821V18ZM20.7206 16.9042L21.4275 16.6534L20.7206 16.9042ZM14.7812 14.7105L14.3276 14.1133L13.4602 14.7721L14.3852 15.3474L14.7812 14.7105ZM19.8676 17.25H16.8821V18.75H19.8676V17.25ZM20.0138 17.1549C20.0178 17.1663 20.0187 17.1732 20.0189 17.1759C20.0192 17.1787 20.019 17.1799 20.0189 17.1802C20.0188 17.1805 20.0186 17.1817 20.0176 17.1839C20.0165 17.1861 20.0144 17.19 20.0105 17.1949C19.9938 17.2156 19.9479 17.25 19.8676 17.25V18.75C20.8775 18.75 21.8368 17.8073 21.4275 16.6534L20.0138 17.1549ZM17.0004 14.75C18.8054 14.75 19.6275 16.0658 20.0138 17.1549L21.4275 16.6534C20.9737 15.374 19.7856 13.25 17.0004 13.25V14.75ZM15.2349 15.3078C15.6622 14.9833 16.2269 14.75 17.0004 14.75V13.25C15.894 13.25 15.0116 13.5937 14.3276 14.1133L15.2349 15.3078ZM14.3852 15.3474C15.5105 16.0473 15.9671 17.2559 16.1468 18.1481L17.6173 17.8519C17.4048 16.7969 16.8196 15.0951 15.1773 14.0737L14.3852 15.3474Z" fill="#307777"/>
<path d="M9.21924 14.7105L9.61533 15.3474L10.5403 14.7721L9.67288 14.1133L9.21924 14.7105ZM3.27986 16.9041L3.98671 17.1549L3.98671 17.1549L3.27986 16.9041ZM7.11841 18V18.75H7.73242L7.85365 18.1481L7.11841 18ZM7.00008 14.75C7.77358 14.75 8.33834 14.9833 8.7656 15.3078L9.67288 14.1133C8.98887 13.5937 8.10647 13.25 7.00008 13.25V14.75ZM3.98671 17.1549C4.37301 16.0658 5.19512 14.75 7.00008 14.75V13.25C4.21493 13.25 3.02681 15.374 2.57301 16.6534L3.98671 17.1549ZM4.13284 17.25C4.05257 17.25 4.00667 17.2156 3.99004 17.1949C3.98608 17.19 3.98396 17.1861 3.98291 17.1839C3.9819 17.1817 3.98166 17.1805 3.98159 17.1802C3.98154 17.1799 3.98132 17.1787 3.98155 17.1759C3.98178 17.1732 3.98266 17.1663 3.98671 17.1549L2.57301 16.6534C2.16372 17.8073 3.12296 18.75 4.13284 18.75V17.25ZM7.11841 17.25H4.13284V18.75H7.11841V17.25ZM7.85365 18.1481C8.03334 17.2559 8.49001 16.0473 9.61533 15.3474L8.82315 14.0736C7.18083 15.0951 6.59567 16.7969 6.38318 17.8519L7.85365 18.1481Z" fill="#307777"/>
<path d="M12 14C15.5715 14 16.5919 16.5512 16.8834 18.0089C16.9917 18.5504 16.5523 19 16 19H8C7.44772 19 7.00829 18.5504 7.11659 18.0089C7.4081 16.5512 8.42846 14 12 14Z" stroke="#307777" stroke-width="1.5" stroke-linecap="round"/>
</svg>
