<svg width="83" height="24" viewBox="0 0 83 24" fill="none" xmlns="http://www.w3.org/2000/svg">
<circle cx="12" cy="10" r="3" fill="#307777"/>
<circle cx="12" cy="12" r="9" stroke="#307777" stroke-width="1.2"/>
<path d="M17.8719 18.8083C17.9489 18.7468 17.9799 18.6436 17.9452 18.5513C17.5693 17.5518 16.8134 16.6706 15.7814 16.0332C14.6966 15.3632 13.3674 15 12 15C10.6326 15 9.30341 15.3632 8.21858 16.0332C7.18663 16.6706 6.43066 17.5518 6.05477 18.5513C6.02009 18.6436 6.05115 18.7468 6.12813 18.8083C9.56196 21.552 14.438 21.552 17.8719 18.8083Z" fill="#97BABA" stroke="#307777" stroke-width="1.2" stroke-linecap="round"/>
<path d="M43.1929 9.32102C43.0835 8.98627 42.9394 8.68632 42.7604 8.42116C42.5847 8.1527 42.3743 7.92401 42.129 7.73509C41.887 7.54616 41.6119 7.40199 41.3037 7.30256C40.9955 7.20312 40.6574 7.15341 40.2895 7.15341C39.6863 7.15341 39.1378 7.30919 38.6439 7.62074C38.1501 7.93229 37.7573 8.39134 37.4656 8.99787C37.174 9.6044 37.0281 10.3485 37.0281 11.2301C37.0281 12.1117 37.1756 12.8558 37.4706 13.4624C37.7656 14.0689 38.165 14.5279 38.6688 14.8395C39.1726 15.151 39.7393 15.3068 40.3691 15.3068C40.9524 15.3068 41.4661 15.1825 41.9102 14.9339C42.3577 14.6821 42.7057 14.3274 42.9543 13.87C43.2062 13.4093 43.3321 12.8674 43.3321 12.2443L43.71 12.3239H40.6475V11.2301H44.5253V12.3239C44.5253 13.1624 44.3463 13.8916 43.9884 14.5114C43.6337 15.1312 43.1432 15.6117 42.5168 15.9531C41.8937 16.2912 41.1778 16.4602 40.3691 16.4602C39.4675 16.4602 38.6754 16.2481 37.9926 15.8239C37.3132 15.3996 36.7829 14.7964 36.4017 14.0142C36.0239 13.232 35.835 12.304 35.835 11.2301C35.835 10.4247 35.9427 9.70052 36.1581 9.05753C36.3769 8.41122 36.6851 7.86103 37.0828 7.40696C37.4806 6.95289 37.9512 6.60488 38.4948 6.36293C39.0383 6.12098 39.6366 6 40.2895 6C40.8264 6 41.3269 6.0812 41.7909 6.24361C42.2583 6.4027 42.6742 6.62973 43.0388 6.92472C43.4067 7.21638 43.7133 7.56605 43.9585 7.97372C44.2038 8.37808 44.3728 8.82718 44.4656 9.32102H43.1929Z" fill="black"/>
<path d="M46.4779 16.321V8.68466H47.6114V9.83807H47.691C47.8302 9.46023 48.0821 9.15365 48.4466 8.91832C48.8112 8.683 49.2222 8.56534 49.6796 8.56534C49.7658 8.56534 49.8735 8.567 50.0028 8.57031C50.132 8.57363 50.2298 8.5786 50.2961 8.58523V9.77841C50.2563 9.76847 50.1652 9.75355 50.0226 9.73366C49.8834 9.71046 49.7359 9.69886 49.5802 9.69886C49.209 9.69886 48.8775 9.77675 48.5858 9.93253C48.2975 10.085 48.0688 10.2971 47.8998 10.5689C47.734 10.8374 47.6512 11.1439 47.6512 11.4886V16.321H46.4779Z" fill="black"/>
<path d="M54.5567 16.4801C53.8673 16.4801 53.2625 16.3161 52.7421 15.9879C52.2251 15.6598 51.8207 15.2008 51.529 14.6108C51.2407 14.0208 51.0965 13.3314 51.0965 12.5426C51.0965 11.7472 51.2407 11.0528 51.529 10.4595C51.8207 9.86624 52.2251 9.40554 52.7421 9.07741C53.2625 8.74929 53.8673 8.58523 54.5567 8.58523C55.2461 8.58523 55.8493 8.74929 56.3664 9.07741C56.8867 9.40554 57.2911 9.86624 57.5795 10.4595C57.8711 11.0528 58.017 11.7472 58.017 12.5426C58.017 13.3314 57.8711 14.0208 57.5795 14.6108C57.2911 15.2008 56.8867 15.6598 56.3664 15.9879C55.8493 16.3161 55.2461 16.4801 54.5567 16.4801ZM54.5567 15.4261C55.0804 15.4261 55.5113 15.2919 55.8493 15.0234C56.1874 14.755 56.4376 14.402 56.6001 13.9645C56.7625 13.527 56.8437 13.053 56.8437 12.5426C56.8437 12.0322 56.7625 11.5566 56.6001 11.1158C56.4376 10.675 56.1874 10.3187 55.8493 10.0469C55.5113 9.77509 55.0804 9.6392 54.5567 9.6392C54.0331 9.6392 53.6022 9.77509 53.2641 10.0469C52.926 10.3187 52.6758 10.675 52.5134 11.1158C52.351 11.5566 52.2698 12.0322 52.2698 12.5426C52.2698 13.053 52.351 13.527 52.5134 13.9645C52.6758 14.402 52.926 14.755 53.2641 15.0234C53.6022 15.2919 54.0331 15.4261 54.5567 15.4261Z" fill="black"/>
<path d="M64.6205 13.1989V8.68466H65.7938V16.321H64.6205V15.0284H64.5409C64.3619 15.4162 64.0835 15.746 63.7057 16.0178C63.3279 16.2862 62.8506 16.4205 62.2739 16.4205C61.7966 16.4205 61.3724 16.3161 61.0012 16.1072C60.6299 15.8951 60.3383 15.5769 60.1262 15.1527C59.914 14.7251 59.808 14.1866 59.808 13.5369V8.68466H60.9813V13.4574C60.9813 14.0142 61.137 14.4583 61.4486 14.7898C61.7635 15.1212 62.1645 15.2869 62.6517 15.2869C62.9434 15.2869 63.24 15.2124 63.5416 15.0632C63.8466 14.9141 64.1018 14.6854 64.3073 14.3771C64.5161 14.0689 64.6205 13.6761 64.6205 13.1989Z" fill="black"/>
<path d="M67.9427 19.1847V8.68466H69.0763V9.89773H69.2155C69.3016 9.76515 69.421 9.59612 69.5734 9.39062C69.7292 9.18182 69.9513 8.99621 70.2396 8.83381C70.5313 8.66809 70.9257 8.58523 71.4229 8.58523C72.0658 8.58523 72.6326 8.74598 73.1231 9.06747C73.6137 9.38897 73.9965 9.8447 74.2716 10.4347C74.5467 11.0246 74.6842 11.7206 74.6842 12.5227C74.6842 13.3314 74.5467 14.0324 74.2716 14.6257C73.9965 15.2157 73.6153 15.6731 73.1281 15.9979C72.6409 16.3194 72.0791 16.4801 71.4427 16.4801C70.9522 16.4801 70.5595 16.3989 70.2645 16.2365C69.9695 16.0708 69.7425 15.8835 69.5834 15.6747C69.4243 15.4626 69.3016 15.2869 69.2155 15.1477H69.116V19.1847H67.9427ZM69.0961 12.5028C69.0961 13.0795 69.1807 13.5883 69.3497 14.0291C69.5187 14.4666 69.7657 14.8097 70.0905 15.0582C70.4153 15.3035 70.813 15.4261 71.2836 15.4261C71.7742 15.4261 72.1835 15.2969 72.5116 15.0384C72.8431 14.7765 73.0916 14.4252 73.2574 13.9844C73.4264 13.5402 73.5109 13.0464 73.5109 12.5028C73.5109 11.9659 73.4281 11.482 73.2623 11.0511C73.0999 10.617 72.853 10.2739 72.5216 10.022C72.1934 9.76681 71.7808 9.6392 71.2836 9.6392C70.8064 9.6392 70.4053 9.76018 70.0805 10.0021C69.7557 10.2408 69.5104 10.5755 69.3447 11.0064C69.179 11.4339 69.0961 11.9328 69.0961 12.5028Z" fill="black"/>
<path d="M81.8831 10.3949L80.8291 10.6932C80.7628 10.5175 80.665 10.3468 80.5358 10.1811C80.4098 10.0121 80.2375 9.87287 80.0187 9.76349C79.8 9.65412 79.5199 9.59943 79.1785 9.59943C78.7112 9.59943 78.3218 9.70715 78.0102 9.92259C77.702 10.1347 77.5479 10.4048 77.5479 10.733C77.5479 11.0246 77.6539 11.255 77.866 11.424C78.0782 11.593 78.4096 11.7339 78.8604 11.8466L79.9939 12.125C80.6766 12.2907 81.1854 12.5443 81.5202 12.8857C81.8549 13.2237 82.0223 13.6596 82.0223 14.1932C82.0223 14.6307 81.8963 15.0218 81.6444 15.3665C81.3959 15.7112 81.0479 15.983 80.6004 16.1818C80.153 16.3807 79.6326 16.4801 79.0393 16.4801C78.2604 16.4801 77.6158 16.3111 77.1054 15.973C76.595 15.6349 76.2718 15.1411 76.1359 14.4915L77.2496 14.2131C77.3556 14.6241 77.5561 14.9323 77.8511 15.1378C78.1494 15.3433 78.5389 15.446 79.0194 15.446C79.5663 15.446 80.0005 15.33 80.322 15.098C80.6468 14.8627 80.8092 14.581 80.8092 14.2528C80.8092 13.9877 80.7164 13.7656 80.5308 13.5866C80.3452 13.4044 80.0602 13.2685 79.6757 13.179L78.403 12.8807C77.7036 12.715 77.1899 12.4581 76.8618 12.1101C76.537 11.7588 76.3746 11.3196 76.3746 10.7926C76.3746 10.3617 76.4955 9.98059 76.7375 9.64915C76.9827 9.31771 77.3158 9.05753 77.7368 8.86861C78.161 8.67969 78.6416 8.58523 79.1785 8.58523C79.9342 8.58523 80.5275 8.75095 80.9584 9.08239C81.3925 9.41383 81.7008 9.85133 81.8831 10.3949Z" fill="black"/>
</svg>
