<svg width="12" height="7" viewBox="0 0 12 7" fill="none" xmlns="http://www.w3.org/2000/svg">
<path d="M10.702 0.728027C10.8794 0.728027 11.0334 0.770027 11.164 0.854027C11.2947 0.938027 11.3927 1.04536 11.458 1.17603C11.5327 1.30669 11.57 1.44669 11.57 1.59603C11.5794 1.75469 11.5514 1.89936 11.486 2.03003C11.318 2.33803 11.1127 2.61803 10.87 2.87003C10.6367 3.13136 10.3987 3.38336 10.156 3.62603C9.80136 4.01803 9.44203 4.37269 9.07803 4.69003C8.72336 5.00736 8.38269 5.29669 8.05603 5.55803C7.15069 6.23936 6.46003 6.58003 5.98403 6.58003C5.35869 6.58003 4.08003 5.70269 2.14803 3.94803C2.02669 3.84536 1.89603 3.73336 1.75603 3.61203C1.61603 3.49069 1.47603 3.36469 1.33603 3.23403C1.20536 3.10336 1.08869 2.96803 0.986027 2.82803C0.874026 2.68803 0.78536 2.54336 0.720027 2.39403C0.608026 2.10469 0.594027 1.85269 0.678026 1.63803C0.762026 1.43269 0.89736 1.28336 1.08403 1.19003C1.27069 1.09669 1.48536 1.07336 1.72803 1.12003C1.98003 1.16669 2.21803 1.30203 2.44203 1.52603C2.61936 1.69403 2.79669 1.86669 2.97403 2.04403C3.15136 2.23069 3.33336 2.41269 3.52003 2.59003C3.80936 2.88869 4.10336 3.16869 4.40203 3.43003C4.70069 3.69136 5.01336 3.93869 5.34003 4.17203C5.51736 4.29336 5.69003 4.35869 5.85803 4.36803C6.02603 4.37736 6.18469 4.34936 6.33403 4.28403C6.48336 4.21869 6.62803 4.13003 6.76803 4.01803C6.90803 3.90603 7.04336 3.79403 7.17403 3.68203C7.57536 3.35536 7.95803 3.01469 8.32203 2.66003C8.68603 2.31469 9.03136 1.94603 9.35803 1.55403C9.51669 1.39536 9.63803 1.26936 9.72203 1.17603C9.81536 1.08269 9.89003 1.01736 9.94603 0.980027C10.0487 0.886694 10.1654 0.821361 10.296 0.784027C10.4267 0.746694 10.562 0.728027 10.702 0.728027Z" fill="black"/>
</svg>
