<svg width="24" height="24" viewBox="0 0 24 24" fill="none" xmlns="http://www.w3.org/2000/svg">
<path d="M7.5053 0.84375L6.54914 12.743C6.63126 12.7352 6.71369 12.7312 6.79618 12.7311C7.00064 12.7311 7.19958 12.755 7.39102 12.7989L8.35172 0.84375H7.5053ZM11.9063 0.84375V13.112C12.0458 13.0896 12.1868 13.0782 12.3281 13.0781C12.4716 13.0781 12.6125 13.0897 12.75 13.1117V0.84375H11.9063ZM16.4063 0.84375V13.1117C16.6857 13.0669 16.9705 13.0669 17.25 13.1117V0.84375H16.4063ZM20.9063 0.84375V13.1117C21.0458 13.0894 21.1868 13.0781 21.3281 13.0781C21.4717 13.0781 21.6125 13.09 21.75 13.112V0.84375H20.9063ZM2.19033 10.5593C2.41702 11.7893 2.88408 12.706 3.76327 13.7619C2.93311 13.5804 1.94232 12.791 1.27571 11.9821C1.55944 13.0926 2.7038 14.3652 3.55444 15.1704C2.89022 15.1103 1.60107 14.5273 0.920769 14.0747C1.20516 14.7504 2.69039 16.2478 3.57094 16.4688C2.4571 16.6099 1.46925 16.0583 1.13471 15.9203C1.43555 16.5342 2.20782 17.2777 5.29514 17.6104C4.58953 17.1284 4.12435 16.3179 4.12435 15.4029C4.12435 14.3822 4.70316 13.4918 5.54888 13.0421C4.29886 12.5899 3.12099 11.8343 2.19028 10.5593L2.19033 10.5593ZM6.79627 13.5748C5.78161 13.5748 4.96814 14.3883 4.96814 15.4029C4.96814 16.4175 5.78161 17.2311 6.79627 17.2311C7.81088 17.2311 8.62439 16.4175 8.62439 15.4029C8.62439 14.3883 7.81088 13.5748 6.79627 13.5748ZM12.3281 13.9219C11.3135 13.9219 10.5 14.7353 10.5 15.75C10.5 16.7647 11.3135 17.5781 12.3281 17.5781C13.3428 17.5781 14.1563 16.7647 14.1563 15.75C14.1563 14.7353 13.3428 13.9219 12.3281 13.9219ZM16.8281 13.9219C15.8135 13.9219 15 14.7353 15 15.75C15 16.7647 15.8135 17.5781 16.8281 17.5781C17.8428 17.5781 18.6563 16.7647 18.6563 15.75C18.6563 14.7353 17.8428 13.9219 16.8281 13.9219ZM21.3281 13.9219C20.3135 13.9219 19.5 14.7353 19.5 15.75C19.5 16.7647 20.3135 17.5781 21.3281 17.5781C22.3428 17.5781 23.1563 16.7647 23.1563 15.75C23.1563 14.7353 22.3428 13.9219 21.3281 13.9219Z" fill="#307777"/>
</svg>
