<svg width="24" height="24" viewBox="0 0 24 24" fill="none" xmlns="http://www.w3.org/2000/svg">
<path d="M21.2653 10.0153L16.7653 14.5153C16.6949 14.5856 16.5995 14.6252 16.5 14.6252C16.4005 14.6252 16.3051 14.5856 16.2347 14.5153C16.1643 14.4449 16.1248 14.3495 16.1248 14.25C16.1248 14.1505 16.1643 14.055 16.2347 13.9847L20.0944 10.125H15.4687C13.5561 10.1243 11.6975 10.7594 10.1853 11.9304C8.67299 13.1014 7.59284 14.7418 7.11469 16.5937C7.09384 16.6745 7.04665 16.746 6.9806 16.7969C6.91456 16.8479 6.83341 16.8753 6.75 16.875C6.71835 16.875 6.68683 16.8709 6.65625 16.8628C6.56007 16.8378 6.47771 16.7758 6.42726 16.6902C6.37681 16.6046 6.3624 16.5024 6.38719 16.4062C6.90595 14.3925 8.07991 12.6087 9.72412 11.3357C11.3683 10.0627 13.3893 9.37289 15.4687 9.37496H20.0962L16.2347 5.51528C16.1643 5.44491 16.1248 5.34948 16.1248 5.24996C16.1248 5.15045 16.1643 5.05502 16.2347 4.98465C16.3051 4.91429 16.4005 4.87476 16.5 4.87476C16.5995 4.87476 16.6949 4.91429 16.7653 4.98465L21.2653 9.48465C21.3002 9.51948 21.3278 9.56084 21.3467 9.60636C21.3656 9.65189 21.3753 9.70068 21.3753 9.74996C21.3753 9.79925 21.3656 9.84804 21.3467 9.89357C21.3278 9.93909 21.3002 9.98045 21.2653 10.0153ZM18 19.875H3.75C3.65054 19.875 3.55516 19.8355 3.48483 19.7651C3.41451 19.6948 3.375 19.5994 3.375 19.5V8.24996C3.375 8.15051 3.33549 8.05513 3.26516 7.9848C3.19484 7.91447 3.09946 7.87496 3 7.87496C2.90054 7.87496 2.80516 7.91447 2.73484 7.9848C2.66451 8.05513 2.625 8.15051 2.625 8.24996V19.5C2.625 19.7983 2.74353 20.0845 2.9545 20.2955C3.16548 20.5064 3.45163 20.625 3.75 20.625H18C18.0995 20.625 18.1948 20.5855 18.2652 20.5151C18.3355 20.4448 18.375 20.3494 18.375 20.25C18.375 20.1505 18.3355 20.0551 18.2652 19.9848C18.1948 19.9145 18.0995 19.875 18 19.875Z" fill="#0B3243"/>
</svg>
