<svg width="23" height="23" viewBox="0 0 23 23" fill="none" xmlns="http://www.w3.org/2000/svg">
<path d="M16.7263 12.65C17.5885 12.65 18.3472 12.1785 18.738 11.4655L22.8535 4.002C23.2789 3.243 22.7271 2.3 21.8534 2.3H4.8397L3.7591 0H0V2.3H2.29915L6.43761 11.0285L4.88569 13.8345C4.0465 15.3755 5.15009 17.25 6.89744 17.25H20.6923V14.95H6.89744L8.16197 12.65H16.7263ZM5.9318 4.6H19.8991L16.7263 10.35H8.65629L5.9318 4.6ZM6.89744 18.4C5.63291 18.4 4.60979 19.435 4.60979 20.7C4.60979 21.965 5.63291 23 6.89744 23C8.16197 23 9.19658 21.965 9.19658 20.7C9.19658 19.435 8.16197 18.4 6.89744 18.4ZM18.3932 18.4C17.1286 18.4 16.1055 19.435 16.1055 20.7C16.1055 21.965 17.1286 23 18.3932 23C19.6577 23 20.6923 21.965 20.6923 20.7C20.6923 19.435 19.6577 18.4 18.3932 18.4Z" fill="#0B3243"/>
</svg>
