<svg width="15" height="15" viewBox="0 0 15 15" fill="none" xmlns="http://www.w3.org/2000/svg">
<path d="M7.50073 5.84998C7.28395 5.84998 7.06929 5.89267 6.86901 5.97563C6.66873 6.05859 6.48676 6.18018 6.33347 6.33347C6.18018 6.48676 6.05859 6.66873 5.97563 6.86901C5.89267 7.06929 5.84998 7.28395 5.84998 7.50073C5.84998 7.71751 5.89267 7.93216 5.97563 8.13244C6.05859 8.33272 6.18018 8.5147 6.33347 8.66798C6.48676 8.82127 6.66873 8.94286 6.86901 9.02582C7.06929 9.10878 7.28395 9.15147 7.50073 9.15147C7.93853 9.15138 8.35837 8.97736 8.66787 8.66772C8.97738 8.35807 9.1512 7.93816 9.1511 7.50035C9.151 7.06254 8.97699 6.64271 8.66734 6.3332C8.3577 6.0237 7.93778 5.84988 7.49998 5.84998H7.50073ZM7.50073 3.89998C7.71741 3.89988 7.93195 3.8571 8.1321 3.77409C8.33225 3.69108 8.51409 3.56946 8.66723 3.41617C8.82038 3.26289 8.94183 3.08094 9.02466 2.88071C9.10749 2.68049 9.15007 2.46591 9.14998 2.24923C9.14988 2.03254 9.1071 1.818 9.02409 1.61786C8.94108 1.41771 8.81946 1.23587 8.66617 1.08272C8.51289 0.929572 8.33094 0.808117 8.13071 0.725287C7.93049 0.642458 7.71591 0.599877 7.49923 0.599976C7.06162 0.600175 6.64201 0.774204 6.33272 1.08378C6.02342 1.39336 5.84978 1.81312 5.84998 2.25073C5.85017 2.68833 6.0242 3.10794 6.33378 3.41723C6.64336 3.72653 7.06312 3.90017 7.50073 3.89998ZM7.50073 11.1C7.06292 11.1 6.64305 11.2739 6.33347 11.5835C6.02389 11.893 5.84998 12.3129 5.84998 12.7507C5.84998 13.1885 6.02389 13.6084 6.33347 13.918C6.64305 14.2276 7.06292 14.4015 7.50073 14.4015C7.93853 14.4015 8.35841 14.2276 8.66798 13.918C8.97756 13.6084 9.15148 13.1885 9.15148 12.7507C9.15148 12.3129 8.97756 11.893 8.66798 11.5835C8.35841 11.2739 7.93853 11.1 7.50073 11.1Z" fill="#307777"/>
</svg>
