<svg width="24" height="20" viewBox="0 0 24 20" fill="none" xmlns="http://www.w3.org/2000/svg">
<path d="M4.85718 13.4285C4.85718 13.6559 4.94748 13.8739 5.10823 14.0346C5.26897 14.1954 5.48699 14.2857 5.71432 14.2857C5.94165 14.2857 6.15967 14.1954 6.32041 14.0346C6.48116 13.8739 6.57146 13.6559 6.57146 13.4285V6.57141C6.57146 6.34408 6.48116 6.12606 6.32041 5.96532C6.15967 5.80457 5.94165 5.71426 5.71432 5.71426C5.48699 5.71426 5.26897 5.80457 5.10823 5.96532C4.94748 6.12606 4.85718 6.34408 4.85718 6.57141V13.4285Z" fill="#0B3243"/>
<path fill-rule="evenodd" clip-rule="evenodd" d="M21.9292 5.71884C21.8584 5.71426 21.7806 5.71426 21.7006 5.71426H18.5315C15.9361 5.71426 13.7144 7.69826 13.7144 10.2857C13.7144 12.8731 15.9361 14.8571 18.5315 14.8571H21.7006C21.7806 14.8571 21.8584 14.8571 21.9292 14.8526C22.9841 14.7886 23.9166 13.9874 23.9955 12.8674C24.0001 12.7943 24.0001 12.7154 24.0001 12.6423V7.92912C24.0001 7.85598 24.0001 7.77712 23.9955 7.70398C23.9166 6.58398 22.9841 5.78398 21.9292 5.71884ZM18.2526 11.5051C18.9201 11.5051 19.4618 10.9588 19.4618 10.2857C19.4618 9.61141 18.9201 9.06626 18.2526 9.06626C17.5841 9.06626 17.0412 9.61255 17.0412 10.2857C17.0412 10.96 17.5841 11.5051 18.2526 11.5051Z" fill="#0B3243"/>
<path opacity="0.5" d="M21.8743 5.71657C21.8743 4.36686 21.824 2.91886 20.9623 1.88229C20.878 1.78074 20.7892 1.68311 20.696 1.58971C19.84 0.734857 18.7554 0.355429 17.416 0.174857C16.1131 1.36239e-07 14.4503 0 12.3497 0H9.936C7.83543 0 6.17143 1.36239e-07 4.86857 0.174857C3.52914 0.355429 2.44457 0.734857 1.58857 1.58971C0.733714 2.44571 0.354286 3.53029 0.173714 4.86971C-5.10897e-08 6.17257 0 7.83543 0 9.936V10.064C0 12.1646 1.36239e-07 13.8286 0.174857 15.1303C0.355429 16.4697 0.734857 17.5543 1.58971 18.4103C2.44571 19.2651 3.53029 19.6446 4.86971 19.8251C6.17257 20 7.83543 20 9.936 20H12.3497C14.4503 20 16.1143 20 17.416 19.8251C18.7554 19.6446 19.84 19.2651 20.696 18.4103C20.9237 18.1819 21.1253 17.9289 21.2971 17.656C21.8114 16.8331 21.8731 15.8251 21.8731 14.856L21.7017 14.8571H18.5314C15.936 14.8571 13.7143 12.8731 13.7143 10.2857C13.7143 7.69829 15.936 5.71429 18.5314 5.71429H21.7006C21.76 5.71429 21.8194 5.71429 21.8743 5.71657Z" fill="#0B3243"/>
</svg>
