<svg width="16" height="18" viewBox="0 0 16 18" fill="none" xmlns="http://www.w3.org/2000/svg">
<g clip-path="url(#clip0_1529_22)">
<path d="M1.92325 7.125V4.21125C1.92325 3.86625 2.039 3.578 2.2705 3.3465C2.502 3.115 2.79 2.9995 3.1345 3H14.212C14.557 3 14.845 3.1155 15.076 3.3465C15.3075 3.578 15.4232 3.86625 15.4232 4.21125V7.125H14.6732V4.21125C14.6732 4.09625 14.6253 3.9905 14.5293 3.894C14.4328 3.798 14.327 3.75 14.212 3.75H3.1345C3.0195 3.75 2.91375 3.798 2.81725 3.894C2.72125 3.99 2.67325 4.09575 2.67325 4.21125V7.125H1.92325ZM3.1345 12.75C2.7895 12.75 2.50125 12.6343 2.26975 12.4028C2.03875 12.1718 1.92325 11.8835 1.92325 11.538V7.875H2.67325V11.538C2.67325 11.653 2.72125 11.7588 2.81725 11.8553C2.91375 11.9518 3.0195 12 3.1345 12H14.212C14.327 12 14.4328 11.9518 14.5293 11.8553C14.6253 11.7593 14.6732 11.6535 14.6732 11.538V7.875H15.4232V11.538C15.4232 11.883 15.3075 12.1713 15.076 12.4028C14.8445 12.6343 14.5565 12.75 14.212 12.75H3.1345ZM1.375 14.25C1.2685 14.25 1.17925 14.214 1.10725 14.142C1.03575 14.0705 1 13.9815 1 13.875C1 13.768 1.03575 13.6788 1.10725 13.6073C1.17925 13.5358 1.2685 13.5 1.375 13.5H15.9715C16.078 13.5 16.167 13.5358 16.2385 13.6073C16.3105 13.6788 16.3465 13.768 16.3465 13.875C16.3465 13.9815 16.3105 14.0705 16.2385 14.142C16.1665 14.2135 16.0775 14.2495 15.9715 14.25H1.375ZM1.92325 7.875V7.125H5.67325C5.74325 7.125 5.8095 7.14325 5.872 7.17975C5.9345 7.21625 5.98275 7.268 6.01675 7.335L7.2295 9.7575L9.83875 5.07675C9.87225 5.01175 9.91875 4.96675 9.97825 4.94175C10.0382 4.91625 10.1032 4.9035 10.1732 4.9035C10.2432 4.9035 10.3095 4.916 10.372 4.941C10.4345 4.967 10.4828 5.015 10.5168 5.085L11.5367 7.125H15.4232V7.875H11.4423C11.3338 7.875 11.229 7.84525 11.128 7.78575C11.027 7.72675 10.95 7.643 10.897 7.5345L10.1357 6.021L7.51225 10.6725C7.47875 10.74 7.43075 10.7905 7.36825 10.824C7.30575 10.858 7.23925 10.875 7.16875 10.875C7.09875 10.875 7.03325 10.8565 6.97225 10.8195C6.91125 10.783 6.86375 10.7313 6.82975 10.6643L5.43475 7.87425L1.92325 7.875Z" fill="#333333"/>
</g>
<defs>
<clipPath id="clip0_1529_22">
<rect width="16" height="18" fill="white"/>
</clipPath>
</defs>
</svg>
