<svg width="41" height="24" viewBox="0 0 41 24" fill="none" xmlns="http://www.w3.org/2000/svg">
<g clip-path="url(#clip0_845_12)">
<g clip-path="url(#clip1_845_12)">
<path d="M23.6217 10.5485C23.4045 10.5485 23.2034 10.5092 23.0184 10.4307C22.8334 10.3522 22.6725 10.2463 22.5358 10.1129C22.399 9.97944 22.2864 9.81855 22.1979 9.63018C22.1094 9.44181 22.0692 9.2456 22.0773 9.04154C22.0773 8.82963 22.1175 8.63341 22.1979 8.4529C22.2784 8.27238 22.3869 8.11541 22.5237 7.98198C22.6604 7.84856 22.8253 7.73868 23.0184 7.65234C23.2114 7.56601 23.4125 7.52677 23.6217 7.53462C23.8389 7.53462 24.0399 7.57386 24.225 7.65234C24.41 7.73083 24.5708 7.83678 24.7076 7.97021C24.8443 8.10364 24.9569 8.26453 25.0454 8.4529C25.1339 8.64126 25.1741 8.83748 25.1661 9.04154C25.1661 9.25345 25.1259 9.44966 25.0454 9.63018C24.965 9.8107 24.8564 9.96767 24.7196 10.1011C24.5829 10.2345 24.418 10.3444 24.225 10.4307C24.0319 10.5171 23.8308 10.5563 23.6217 10.5485ZM40.6101 12.0554C40.6101 13.1699 40.4653 14.2373 40.1758 15.2576C39.8862 16.2779 39.4719 17.2394 38.933 18.1419C38.3941 19.0445 37.7506 19.8569 37.0025 20.5789C36.2544 21.301 35.4179 21.9289 34.4928 22.4626C33.5678 22.9963 32.5824 23.4005 31.5367 23.6752C30.4911 23.9499 29.3971 24.0951 28.2549 24.1108C27.1127 24.1108 26.0187 23.9695 24.973 23.6869C23.9273 23.4044 22.942 23.0002 22.0169 22.4743C21.0919 21.9485 20.2594 21.3206 19.5193 20.5907C18.7793 19.8608 18.1358 19.0445 17.5888 18.1419C17.0419 17.2394 16.6276 16.2779 16.3461 15.2576C16.0645 14.2373 15.9157 13.1699 15.8996 12.0554C15.8996 10.9487 16.0444 9.88133 16.334 8.85317C16.6236 7.82501 17.0378 6.86356 17.5768 5.96883C18.1157 5.07409 18.7592 4.26177 19.5073 3.53185C20.2553 2.80194 21.0919 2.17405 22.0169 1.6482C22.942 1.12234 23.9273 0.718143 24.973 0.435595C26.0187 0.153047 27.1127 0.00784856 28.2549 0C29.3891 0 30.483 0.141274 31.5367 0.423822C32.5905 0.70637 33.5758 1.11057 34.4928 1.63642C35.4098 2.16228 36.2424 2.79016 36.9904 3.52008C37.7385 4.24999 38.382 5.06624 38.9209 5.96883C39.4599 6.87141 39.8741 7.83286 40.1637 8.85317C40.4533 9.87349 40.6021 10.9409 40.6101 12.0554ZM28.2549 22.6038C29.2443 22.6038 30.1975 22.4783 31.1144 22.2271C32.0314 21.976 32.8921 21.6228 33.6965 21.1676C34.5009 20.7123 35.2329 20.159 35.8924 19.5076C36.552 18.8562 37.1151 18.1459 37.5816 17.3767C38.0482 16.6075 38.4142 15.7678 38.6796 14.8573C38.9451 13.9469 39.0738 13.0129 39.0657 12.0554C39.0657 11.09 38.937 10.16 38.6796 9.26522C38.4222 8.37049 38.0602 7.53069 37.5937 6.74584C37.1272 5.96098 36.5601 5.24676 35.8924 4.60318C35.2248 3.9596 34.4969 3.4102 33.7086 2.95498C32.9203 2.49977 32.0596 2.14266 31.1265 1.88365C30.1934 1.62465 29.2362 1.49907 28.2549 1.50692C27.2575 1.50692 26.3002 1.6325 25.3833 1.88365C24.4663 2.13481 23.6096 2.48799 22.8133 2.94321C22.0169 3.39843 21.285 3.95175 20.6173 4.60318C19.9497 5.25461 19.3866 5.9649 18.9281 6.73406C18.4696 7.50322 18.1036 8.34302 17.8301 9.25345C17.5567 10.1639 17.428 11.0979 17.444 12.0554C17.444 13.0286 17.5727 13.9626 17.8301 14.8573C18.0876 15.7521 18.4495 16.5879 18.9161 17.3649C19.3826 18.1419 19.9497 18.8562 20.6173 19.5076C21.285 20.159 22.0129 20.7084 22.8012 21.1558C23.5895 21.6032 24.4502 21.9603 25.3833 22.2271C26.3163 22.494 27.2735 22.6195 28.2549 22.6038ZM32.8881 10.5485C32.6709 10.5485 32.4698 10.5092 32.2848 10.4307C32.0998 10.3522 31.9389 10.2463 31.8022 10.1129C31.6654 9.97944 31.5528 9.81855 31.4643 9.63018C31.3759 9.44181 31.3356 9.2456 31.3437 9.04154C31.3437 8.82963 31.3839 8.63341 31.4643 8.4529C31.5448 8.27238 31.6534 8.11541 31.7901 7.98198C31.9269 7.84856 32.0918 7.73868 32.2848 7.65234C32.4779 7.56601 32.679 7.52677 32.8881 7.53462C33.1053 7.53462 33.3064 7.57386 33.4914 7.65234C33.6764 7.73083 33.8373 7.83678 33.974 7.97021C34.1108 8.10364 34.2234 8.26453 34.3118 8.4529C34.4003 8.64126 34.4405 8.83748 34.4325 9.04154C34.4325 9.25345 34.3923 9.44966 34.3118 9.63018C34.2314 9.8107 34.1228 9.96767 33.9861 10.1011C33.8493 10.2345 33.6844 10.3444 33.4914 10.4307C33.2983 10.5171 33.0972 10.5563 32.8881 10.5485ZM28.2549 18.0831C28.8421 18.0831 29.4092 18.0046 29.9561 17.8476C30.5031 17.6906 31.0179 17.467 31.5005 17.1766C31.9832 16.8862 32.4095 16.533 32.7795 16.117C33.1495 15.701 33.4753 15.238 33.7568 14.7278L35.1444 15.4106C34.8146 16.0464 34.4084 16.6232 33.9257 17.1413C33.4431 17.6593 32.9042 18.0988 32.3089 18.4598C31.7137 18.8208 31.0742 19.0995 30.3905 19.2957C29.7068 19.4919 28.9949 19.59 28.2549 19.59C27.5149 19.59 26.803 19.4919 26.1193 19.2957C25.4355 19.0995 24.7961 18.8208 24.2008 18.4598C23.6056 18.0988 23.0666 17.6593 22.584 17.1413C22.1014 16.6232 21.6952 16.0464 21.3654 15.4106L22.7529 14.7278C23.0184 15.238 23.3401 15.701 23.7182 16.117C24.0963 16.533 24.5266 16.8862 25.0092 17.1766C25.4918 17.467 26.0026 17.6906 26.5416 17.8476C27.0805 18.0046 27.6516 18.0831 28.2549 18.0831ZM8.17762 6.02769V10.5485H12.8108V12.0554H8.17762V16.5762H6.63321V12.0554H2V10.5485H6.63321V6.02769H8.17762Z" fill="#8C8888"/>
</g>
</g>
<defs>
<clipPath id="clip0_845_12">
<rect width="41" height="24" fill="white"/>
</clipPath>
<clipPath id="clip1_845_12">
<rect width="38.6101" height="24.1108" fill="white" transform="translate(2)"/>
</clipPath>
</defs>
</svg>
