<svg width="20" height="20" viewBox="0 0 20 20" fill="none" xmlns="http://www.w3.org/2000/svg">
<g clip-path="url(#clip0_963_4005)">
<path d="M19.6667 0H0.333333C0.133333 0 0 0.133333 0 0.333333V19.6667C0 19.8667 0.133333 20 0.333333 20H19.6667C19.8667 20 20 19.8667 20 19.6667V0.333333C20 0.133333 19.8667 0 19.6667 0ZM19.3333 19.3333H0.666667V0.666667H19.3333V19.3333Z" fill="#307777"/>
<path d="M2.00002 6.33335H18C18.2 6.33335 18.3334 6.20002 18.3334 6.00002V2.00002C18.3334 1.80002 18.2 1.66669 18 1.66669H2.00002C1.80002 1.66669 1.66669 1.80002 1.66669 2.00002V6.00002C1.66669 6.20002 1.80002 6.33335 2.00002 6.33335ZM2.33335 2.33335H17.6667V5.66669H2.33335V2.33335Z" fill="#307777"/>
<path d="M18 7.33331H14C13.8 7.33331 13.6667 7.46665 13.6667 7.66665V11.3333C13.6667 11.5333 13.8 11.6666 14 11.6666H18C18.2 11.6666 18.3334 11.5333 18.3334 11.3333V7.66665C18.3334 7.46665 18.2 7.33331 18 7.33331ZM17.6667 10.6L14.8334 7.99998H17.6667V10.6ZM14.3334 8.43331L17.1334 11H14.3334V8.43331Z" fill="#307777"/>
<path d="M18 12.6667H14C13.8 12.6667 13.6667 12.8 13.6667 13V18C13.6667 18.2 13.8 18.3334 14 18.3334H18C18.2 18.3334 18.3334 18.2 18.3334 18V13C18.3334 12.8 18.2 12.6667 18 12.6667ZM17.3 13.3334L14.3334 17.0667V13.3334H17.3ZM14.7 17.6667L17.6667 13.9667V17.6667H14.7Z" fill="#307777"/>
<path d="M2.00002 13.3333H7.66669C7.86669 13.3333 8.00002 13.2 8.00002 13V7.66665C8.00002 7.46665 7.86669 7.33331 7.66669 7.33331H2.00002C1.80002 7.33331 1.66669 7.46665 1.66669 7.66665V13C1.66669 13.2 1.80002 13.3333 2.00002 13.3333ZM2.86669 12.6666L7.33335 8.46665V12.6666H2.86669ZM6.83335 7.99998L2.33335 12.2333V7.99998H6.83335Z" fill="#307777"/>
<path d="M12.3333 7.33331H9V7.99998H12.3333V7.33331Z" fill="#307777"/>
<path d="M12.3333 9H9V9.66667H12.3333V9Z" fill="#307777"/>
<path d="M12.3333 10.6667H9V11.3334H12.3333V10.6667Z" fill="#307777"/>
<path d="M12.3333 12.3333H9V13H12.3333V12.3333Z" fill="#307777"/>
<path d="M12.3333 14.3333H2V15H12.3333V14.3333Z" fill="#307777"/>
<path d="M12.3333 16H2V16.6667H12.3333V16Z" fill="#307777"/>
<path d="M12.3333 17.6667H2V18.3334H12.3333V17.6667Z" fill="#307777"/>
<path d="M11 4.33331H10V4.99998H11V4.33331Z" fill="#307777"/>
<path d="M12.6667 4.33331H11.6667V4.99998H12.6667V4.33331Z" fill="#307777"/>
<path d="M9.33331 4.33331H8.33331V4.99998H9.33331V4.33331Z" fill="#307777"/>
</g>
<defs>
<clipPath id="clip0_963_4005">
<rect width="20" height="20" fill="white"/>
</clipPath>
</defs>
</svg>
