<svg width="27" height="24" viewBox="0 0 27 24" fill="none" xmlns="http://www.w3.org/2000/svg">
<g clip-path="url(#clip0_859_15)">
<path d="M25.2 6.85348H20.7V8.56684H25.2V13.707H18.9V15.4203H21.6V17.2553C20.7516 17.4638 20.0122 17.9597 19.5205 18.65C19.0287 19.3403 18.8183 20.1776 18.9287 21.005C19.0391 21.8324 19.4627 22.5931 20.1202 23.1445C20.7776 23.6958 21.6238 24 22.5 24C23.3762 24 24.2224 23.6958 24.8798 23.1445C25.5373 22.5931 25.9609 21.8324 26.0713 21.005C26.1817 20.1776 25.9713 19.3403 25.4795 18.65C24.9878 17.9597 24.2484 17.4638 23.4 17.2553V15.4203H25.2C25.6772 15.4196 26.1346 15.2389 26.472 14.9177C26.8094 14.5966 26.9993 14.1612 27 13.707V8.56684C26.9995 8.11257 26.8097 7.67703 26.4723 7.35581C26.1348 7.03459 25.6772 6.85393 25.2 6.85348ZM24.3 20.5604C24.3 20.8993 24.1944 21.2306 23.9966 21.5123C23.7989 21.7941 23.5177 22.0137 23.1888 22.1434C22.8599 22.2731 22.498 22.307 22.1488 22.2409C21.7997 22.1748 21.4789 22.0116 21.2272 21.772C20.9755 21.5323 20.804 21.227 20.7346 20.8947C20.6651 20.5623 20.7008 20.2178 20.837 19.9047C20.9733 19.5917 21.204 19.3241 21.5 19.1358C21.796 18.9475 22.144 18.8471 22.5 18.8471C22.9772 18.8477 23.4346 19.0285 23.772 19.3496C24.1094 19.6708 24.2993 20.1062 24.3 20.5604ZM16.2 3.42674H11.7V5.14011H16.2V10.2802H9.9V11.9936H12.6V17.2553C11.7516 17.4638 11.0122 17.9597 10.5205 18.65C10.0287 19.3403 9.81829 20.1776 9.92869 21.005C10.0391 21.8324 10.4627 22.5931 11.1202 23.1445C11.7776 23.6958 12.6238 24 13.5 24C14.3762 24 15.2224 23.6958 15.8798 23.1445C16.5373 22.5931 16.9609 21.8324 17.0713 21.005C17.1817 20.1776 16.9713 19.3403 16.4795 18.65C15.9878 17.9597 15.2484 17.4638 14.4 17.2553V11.9936H16.2C16.6772 11.9931 17.1348 11.8125 17.4723 11.4912C17.8097 11.17 17.9995 10.7345 18 10.2802V5.14011C17.9995 4.68583 17.8097 4.25029 17.4723 3.92907C17.1348 3.60785 16.6772 3.42719 16.2 3.42674ZM15.3 20.5604C15.3 20.8993 15.1944 21.2306 14.9966 21.5123C14.7989 21.7941 14.5177 22.0137 14.1888 22.1434C13.8599 22.2731 13.498 22.307 13.1488 22.2409C12.7997 22.1748 12.4789 22.0116 12.2272 21.772C11.9755 21.5323 11.804 21.227 11.7346 20.8947C11.6651 20.5623 11.7008 20.2178 11.837 19.9047C11.9733 19.5917 12.204 19.3241 12.5 19.1358C12.796 18.9475 13.144 18.8471 13.5 18.8471C13.9772 18.8477 14.4346 19.0285 14.772 19.3496C15.1094 19.6708 15.2993 20.1062 15.3 20.5604ZM7.2 0H1.8C1.32276 0.000453594 0.865196 0.181114 0.527734 0.502335C0.190272 0.823556 0.000476529 1.25909 0 1.71337V6.85348C0.000476529 7.30775 0.190272 7.74329 0.527734 8.06451C0.865196 8.38573 1.32276 8.56639 1.8 8.56684H3.6V17.2553C2.75161 17.4638 2.01223 17.9597 1.52046 18.65C1.02869 19.3403 0.818286 20.1776 0.928693 21.005C1.0391 21.8324 1.46274 22.5931 2.12019 23.1445C2.77765 23.6958 3.62378 24 4.5 24C5.37622 24 6.22235 23.6958 6.87981 23.1445C7.53726 22.5931 7.9609 21.8324 8.07131 21.005C8.18171 20.1776 7.97131 19.3403 7.47954 18.65C6.98777 17.9597 6.24839 17.4638 5.4 17.2553V8.56684H7.2C7.67724 8.56639 8.1348 8.38573 8.47227 8.06451C8.80973 7.74329 8.99952 7.30775 9 6.85348V1.71337C8.99952 1.25909 8.80973 0.823556 8.47227 0.502335C8.1348 0.181114 7.67724 0.000453594 7.2 0ZM6.3 20.5604C6.3 20.8993 6.19443 21.2306 5.99665 21.5123C5.79886 21.7941 5.51774 22.0137 5.18883 22.1434C4.85992 22.2731 4.498 22.307 4.14884 22.2409C3.79967 22.1748 3.47894 22.0116 3.22721 21.772C2.97547 21.5323 2.80404 21.227 2.73459 20.8947C2.66513 20.5623 2.70078 20.2178 2.83702 19.9047C2.97325 19.5917 3.20397 19.3241 3.49997 19.1358C3.79598 18.9475 4.14399 18.8471 4.5 18.8471C4.97724 18.8475 5.4348 19.0282 5.77227 19.3494C6.10973 19.6706 6.29952 20.1062 6.3 20.5604ZM1.8 6.85348V1.71337H7.2L7.2018 6.85348H1.8Z" fill="#0B3243"/>
</g>
<defs>
<clipPath id="clip0_859_15">
<rect width="27" height="24" fill="white"/>
</clipPath>
</defs>
</svg>
