<svg width="32" height="32" viewBox="0 0 32 32" fill="none" xmlns="http://www.w3.org/2000/svg">
<path d="M16.1825 3.00121C8.87121 2.90246 2.90246 8.87121 3.00121 16.1825C3.09871 23.1943 8.80808 28.9037 15.82 29.0012C23.1325 29.1012 29.1 23.1325 29 15.8212C28.9037 8.80808 23.1943 3.09871 16.1825 3.00121ZM15.1331 15.0306L18.355 11.3431C18.5295 11.1433 18.7762 11.0211 19.0409 11.0033C19.3056 10.9855 19.5665 11.0735 19.7662 11.2481C19.9659 11.4226 20.0882 11.6694 20.106 11.934C20.1238 12.1987 20.0358 12.4596 19.8612 12.6593L16.6393 16.3468C16.5529 16.4457 16.4478 16.5266 16.3302 16.5849C16.2125 16.6432 16.0844 16.6778 15.9534 16.6866C15.8223 16.6954 15.6908 16.6784 15.5664 16.6364C15.4419 16.5944 15.327 16.5283 15.2281 16.4418C15.1292 16.3554 15.0483 16.2503 14.99 16.1327C14.9317 16.015 14.8971 15.8869 14.8883 15.7559C14.8795 15.6248 14.8966 15.4933 14.9386 15.3689C14.9806 15.2444 15.0467 15.1295 15.1331 15.0306ZM12.7043 20.7087C12.5168 20.8961 12.2626 21.0014 11.9975 21.0014C11.7324 21.0014 11.4781 20.8961 11.2906 20.7087L8.29371 17.7087C8.20088 17.6158 8.12726 17.5055 8.07705 17.3842C8.02685 17.2628 8.00104 17.1327 8.00109 17.0014C8.00115 16.8701 8.02708 16.74 8.07739 16.6187C8.12771 16.4974 8.20142 16.3872 8.29433 16.2943C8.38724 16.2015 8.49753 16.1279 8.61889 16.0777C8.74025 16.0275 8.87031 16.0017 9.00165 16.0017C9.13299 16.0018 9.26303 16.0277 9.38434 16.078C9.50566 16.1283 9.61588 16.202 9.70871 16.295L12.7087 19.295C12.8955 19.4831 13 19.7376 12.9992 20.0027C12.9984 20.2678 12.8923 20.5218 12.7043 20.7087ZM23.7543 12.6593L16.7618 20.6593C16.6717 20.7626 16.5614 20.8462 16.4377 20.905C16.3139 20.9638 16.1794 20.9965 16.0425 21.0012H16.0087C15.8773 21.0012 15.7472 20.9754 15.6258 20.9251C15.5044 20.8748 15.3941 20.801 15.3012 20.7081L12.305 17.7081C12.1175 17.5204 12.0122 17.266 12.0123 17.0008C12.0125 16.7355 12.1179 16.4812 12.3056 16.2937C12.4932 16.1062 12.7477 16.001 13.0129 16.0011C13.2781 16.0012 13.5325 16.1067 13.72 16.2943L15.5825 18.1587C15.6309 18.2071 15.6887 18.2451 15.7524 18.2703C15.8161 18.2954 15.8843 18.3072 15.9527 18.3049C16.0212 18.3026 16.0884 18.2863 16.1503 18.257C16.2122 18.2276 16.2674 18.1859 16.3125 18.1343L22.25 11.3431C22.4245 11.1433 22.6712 11.0211 22.9359 11.0033C23.2006 10.9855 23.4615 11.0735 23.6612 11.2481C23.8609 11.4226 23.9832 11.6694 24.001 11.934C24.0188 12.1987 23.9308 12.4596 23.7562 12.6593H23.7543Z" fill="#307777"/>
</svg>
