<svg width="16" height="18" viewBox="0 0 16 18" fill="none" xmlns="http://www.w3.org/2000/svg">
<path d="M11.1202 7.62842L9.2189 9.01218L9.9689 11.2359C9.98132 11.2783 9.98032 11.3234 9.96604 11.3652C9.95176 11.407 9.9249 11.4433 9.88915 11.4692C9.8534 11.4951 9.81051 11.5093 9.76638 11.5098C9.72224 11.5103 9.67902 11.4972 9.64265 11.4722L7.7189 10.1184L5.8139 11.5059C5.7909 11.5221 5.76489 11.5335 5.7374 11.5395C5.70991 11.5454 5.6815 11.5457 5.65387 11.5405C5.62624 11.5353 5.59995 11.5245 5.57655 11.5089C5.55315 11.4933 5.53312 11.4732 5.51765 11.4497C5.50077 11.4232 5.48941 11.3937 5.48425 11.3627C5.4791 11.3318 5.48025 11.3002 5.48765 11.2697L6.2189 9.04967L4.31765 7.66217C4.28169 7.6369 4.25474 7.6008 4.24073 7.55914C4.22672 7.51747 4.2264 7.47242 4.23979 7.43056C4.25319 7.3887 4.27961 7.35221 4.3152 7.32641C4.3508 7.30062 4.3937 7.28687 4.43765 7.28717H6.7889L7.52015 5.06342C7.52797 5.01854 7.55044 4.9775 7.58404 4.94673C7.61764 4.91595 7.66049 4.89717 7.70589 4.89332C7.75129 4.88946 7.79669 4.90075 7.835 4.92542C7.87331 4.95009 7.90237 4.98675 7.91765 5.02967L8.6489 7.24967H11.0002C11.0277 7.25016 11.0549 7.25608 11.0802 7.26709C11.1055 7.27809 11.1284 7.29398 11.1476 7.31382C11.1667 7.33367 11.1818 7.3571 11.1919 7.38277C11.202 7.40844 11.2069 7.43585 11.2064 7.46342C11.2066 7.49588 11.1988 7.52789 11.1838 7.55665C11.1688 7.58541 11.1469 7.61005 11.1202 7.62842Z" stroke="#333333" stroke-linecap="round" stroke-linejoin="round"/>
<path d="M7.71875 2C7.71875 2 3.49625 2.75 2 2.75V10.25C2.00234 10.7768 2.10412 11.2985 2.3 11.7875C2.48643 12.2712 2.73882 12.7267 3.05 13.1412C3.36408 13.5574 3.71691 13.9429 4.10375 14.2925C4.46093 14.6234 4.83653 14.9339 5.22875 15.2225C5.57801 15.4731 5.93972 15.7059 6.3125 15.92C6.6875 16.1412 6.95375 16.295 7.11125 16.3663L7.48625 16.55C7.55886 16.5846 7.6383 16.6026 7.71875 16.6026C7.7992 16.6026 7.87864 16.5846 7.95125 16.55L8.32625 16.3663C8.48375 16.2913 8.75 16.1412 9.125 15.92C9.49778 15.7059 9.85949 15.4731 10.2087 15.2225C10.601 14.9339 10.9766 14.6234 11.3337 14.2925C11.7206 13.9429 12.0734 13.5574 12.3875 13.1412C12.6987 12.7267 12.9511 12.2712 13.1375 11.7875C13.3334 11.2985 13.4352 10.7768 13.4375 10.25V2.75C11.9412 2.76125 7.71875 2 7.71875 2Z" stroke="#333333" stroke-linecap="round" stroke-linejoin="round"/>
</svg>
