<svg width="18" height="18" viewBox="0 0 18 18" fill="none" xmlns="http://www.w3.org/2000/svg">
<g clip-path="url(#clip0_1531_4)">
<path d="M16.2823 6.53226C17.2198 5.59476 16.7923 4.49976 16.2823 3.96726L14.0323 1.71726C13.0873 0.779764 11.9998 1.20726 11.4673 1.71726L10.1923 2.99976H8.24976C6.82476 2.99976 5.99976 3.74976 5.57976 4.61226L2.24976 7.94226V10.9423L1.71726 11.4673C0.779764 12.4123 1.20726 13.4998 1.71726 14.0323L3.96726 16.2823C4.37226 16.6873 4.80726 16.8373 5.21976 16.8373C5.75226 16.8373 6.23976 16.5748 6.53226 16.2823L8.55726 14.2498H11.2498C12.5248 14.2498 13.1698 13.4548 13.4023 12.6748C14.2498 12.4498 14.7148 11.8048 14.9023 11.1748C16.0648 10.8748 16.4998 9.77226 16.4998 8.99976V6.74976H16.0573L16.2823 6.53226ZM14.9998 8.99976C14.9998 9.33726 14.8573 9.74976 14.2498 9.74976H13.4998V10.4998C13.4998 10.8373 13.3573 11.2498 12.7498 11.2498H11.9998V11.9998C11.9998 12.3373 11.8573 12.7498 11.2498 12.7498H7.94226L5.48226 15.2098C5.24976 15.4273 5.11476 15.2998 5.03226 15.2173L2.78976 12.9823C2.57226 12.7498 2.69976 12.6148 2.78226 12.5323L3.74976 11.5573V8.55726L5.24976 7.05726V8.24976C5.24976 9.15726 5.84976 10.4998 7.49976 10.4998C9.14976 10.4998 9.74976 9.15726 9.74976 8.24976H14.9998V8.99976ZM15.2173 5.46726L13.9423 6.74976H8.24976V8.24976C8.24976 8.58726 8.10726 8.99976 7.49976 8.99976C6.89226 8.99976 6.74976 8.58726 6.74976 8.24976V5.99976C6.74976 5.65476 6.87726 4.49976 8.24976 4.49976H10.8073L12.5173 2.78976C12.7498 2.57226 12.8848 2.69976 12.9673 2.78226L15.2098 5.01726C15.4273 5.24976 15.2998 5.38476 15.2173 5.46726Z" fill="#333333"/>
</g>
<defs>
<clipPath id="clip0_1531_4">
<rect width="18" height="18" fill="white"/>
</clipPath>
</defs>
</svg>
