<svg width="27" height="24" viewBox="0 0 27 24" fill="none" xmlns="http://www.w3.org/2000/svg">
<path d="M24.375 2H4.125C3.82674 2.00035 3.54079 2.11899 3.32989 2.32989C3.11899 2.54079 3.00035 2.82674 3 3.125V20.375C3.00035 20.6733 3.11899 20.9592 3.32989 21.1701C3.54079 21.381 3.82674 21.4997 4.125 21.5H8.25V18.7427C8.25008 18.5756 8.29481 18.4115 8.37956 18.2675C8.46431 18.1234 8.58601 18.0047 8.73206 17.9234L13.0436 15.527L11.625 11.9806V9.125C11.625 8.42881 11.9016 7.76113 12.3938 7.26884C12.8861 6.77656 13.5538 6.5 14.25 6.5C14.9462 6.5 15.6139 6.77656 16.1062 7.26884C16.5984 7.76113 16.875 8.42881 16.875 9.125V11.9806L15.4564 15.5269L19.7679 17.9234C19.914 18.0047 20.0357 18.1235 20.1204 18.2675C20.2052 18.4115 20.2499 18.5756 20.25 18.7427V21.5H24.375C24.6733 21.4997 24.9592 21.381 25.1701 21.1701C25.381 20.9592 25.4997 20.6733 25.5 20.375V3.125C25.4997 2.82674 25.381 2.54079 25.1701 2.32989C24.9592 2.11899 24.6733 2.00035 24.375 2ZM24 20H21.75V18.7427C21.7499 18.3081 21.6336 17.8815 21.4132 17.5069C21.1929 17.1323 20.8764 16.8234 20.4967 16.6122L17.3398 14.8578L18.375 12.2694V9.125C18.375 8.03098 17.9404 6.98177 17.1668 6.20818C16.3932 5.4346 15.344 5 14.25 5C13.156 5 12.1068 5.4346 11.3332 6.20818C10.5596 6.98177 10.125 8.03098 10.125 9.125V12.2694L11.1602 14.8578L8.00334 16.6124C7.62359 16.8237 7.30717 17.1325 7.08681 17.507C6.86646 17.8816 6.75018 18.3082 6.75 18.7427V20H4.5V3.5H24V20Z" fill="#0B3243"/>
</svg>
