<svg width="139" height="34" viewBox="0 0 139 34" fill="none" xmlns="http://www.w3.org/2000/svg">
<path d="M63.6667 17.8095V4.85714C63.6667 3.07619 65.2952 1.61905 67.2857 1.61905H83.5714C85.5619 1.61905 87.1905 3.07619 87.1905 4.85714V14.5714H80.9838L78.6676 11.7543C78.6451 11.7208 78.6133 11.693 78.5752 11.6738C78.5372 11.6545 78.4942 11.6444 78.4505 11.6444C78.4068 11.6444 78.3638 11.6545 78.3257 11.6738C78.2877 11.693 78.2559 11.7208 78.2333 11.7543L74.6324 16.1905C74.5238 16.2876 74.3067 16.3038 74.1981 16.1905L71.6105 13.3571C71.5847 13.3304 71.5527 13.309 71.5168 13.2943C71.4809 13.2796 71.4419 13.272 71.4024 13.272C71.3629 13.272 71.3239 13.2796 71.288 13.2943C71.2521 13.309 71.2201 13.3304 71.1943 13.3571L67.3762 17.6638C67.2314 17.8095 67.3581 18.0524 67.5752 18.0524H79.0476V21.0476H67.2857C65.2771 21.0476 63.6667 19.6067 63.6667 17.8095ZM58.2381 32.381V30.7619H54.619V32.381H51V0H54.619V1.61905H58.2381V0H62.5629C61.0248 1.1981 60.0476 2.91429 60.0476 4.85714V17.8095C60.0476 21.3876 63.2867 24.2857 67.2857 24.2857H75.7905C73.9267 25.6295 72.7143 27.6533 72.7143 29.9524C72.7143 30.8105 72.9133 31.62 73.221 32.381H58.2381ZM54.619 8.09524H58.2381V4.85714H54.619V8.09524ZM54.619 14.5714H58.2381V11.3333H54.619V14.5714ZM54.619 21.0476H58.2381V17.8095H54.619V21.0476ZM58.2381 27.5238V24.2857H54.619V27.5238H58.2381ZM89 17.8095V21.0476H85.381V29.9524C85.381 31.0259 84.9043 32.0554 84.056 32.8145C83.2076 33.5736 82.0569 34 80.8571 34C79.6574 34 78.5067 33.5736 77.6583 32.8145C76.8099 32.0554 76.3333 31.0259 76.3333 29.9524C76.3337 29.2805 76.521 28.6192 76.8784 28.0283C77.2358 27.4373 77.7519 26.9353 78.3803 26.5674C79.0087 26.1995 79.7296 25.9774 80.4779 25.9211C81.2262 25.8648 81.9784 25.976 82.6667 26.2448V17.8095H89Z" fill="#307777"/>
</svg>
