<svg width="16" height="18" viewBox="0 0 16 18" fill="none" xmlns="http://www.w3.org/2000/svg">
<path d="M4 5.3125C4 5.16332 4.05926 5.02024 4.16475 4.91475C4.27024 4.80926 4.41332 4.75 4.5625 4.75H10.5625C10.7117 4.75 10.8548 4.80926 10.9602 4.91475C11.0657 5.02024 11.125 5.16332 11.125 5.3125C11.125 5.46168 11.0657 5.60476 10.9602 5.71025C10.8548 5.81574 10.7117 5.875 10.5625 5.875H4.5625C4.41332 5.875 4.27024 5.81574 4.16475 5.71025C4.05926 5.60476 4 5.46168 4 5.3125ZM4.5625 7.375C4.41332 7.375 4.27024 7.43426 4.16475 7.53975C4.05926 7.64524 4 7.78832 4 7.9375C4 8.08668 4.05926 8.22976 4.16475 8.33525C4.27024 8.44074 4.41332 8.5 4.5625 8.5H8.3125C8.46168 8.5 8.60476 8.44074 8.71025 8.33525C8.81574 8.22976 8.875 8.08668 8.875 7.9375C8.875 7.78832 8.81574 7.64524 8.71025 7.53975C8.60476 7.43426 8.46168 7.375 8.3125 7.375H4.5625Z" fill="#333333"/>
<path fill-rule="evenodd" clip-rule="evenodd" d="M6.02125 1C4.996 1 4.16875 1 3.5185 1.08775C2.8435 1.17775 2.275 1.37275 1.8235 1.8235C1.372 2.275 1.1785 2.8435 1.08775 3.5185C1 4.16875 1 4.996 1 6.02125V12.1038C1 13.129 1 13.9563 1.08775 14.6065C1.17775 15.2815 1.37275 15.85 1.8235 16.3015C2.275 16.753 2.8435 16.9465 3.5185 17.038C4.16875 17.125 4.996 17.125 6.02125 17.125H9.10375C10.129 17.125 10.9563 17.125 11.6065 17.038C12.2815 16.9465 12.85 16.753 13.3015 16.3015C13.753 15.85 13.9465 15.2815 14.038 14.6065C14.125 13.9563 14.125 13.129 14.125 12.1038V6.02125C14.125 4.996 14.125 4.16875 14.038 3.5185C13.9465 2.8435 13.753 2.275 13.3015 1.8235C12.85 1.372 12.2815 1.1785 11.6065 1.08775C10.9563 1 10.129 1 9.10375 1H6.02125ZM2.62 2.61925C2.82775 2.4115 3.11875 2.2765 3.67 2.20225C4.2355 2.1265 4.987 2.125 6.06325 2.125H9.06325C10.1395 2.125 10.8903 2.1265 11.4573 2.20225C12.0078 2.2765 12.2987 2.41225 12.5065 2.61925C12.7142 2.827 12.8493 3.118 12.9235 3.66925C12.9993 4.23475 13.0007 4.98625 13.0007 6.0625V11.5H4.399C3.7855 11.5 3.367 11.5 3.00775 11.596C2.69183 11.6806 2.3931 11.8197 2.125 12.007V6.0625C2.125 4.98625 2.1265 4.23475 2.20225 3.6685C2.2765 3.118 2.413 2.827 2.62 2.61925ZM2.146 13.7493C2.15725 14.0148 2.17525 14.248 2.203 14.4565C2.27725 15.007 2.413 15.298 2.62 15.5057C2.82775 15.7135 3.11875 15.8485 3.67 15.9227C4.2355 15.9985 4.987 16 6.06325 16H9.06325C10.1395 16 10.8903 15.9985 11.4573 15.9227C12.0078 15.8485 12.2987 15.7127 12.5065 15.5057C12.7142 15.298 12.8493 15.007 12.9235 14.4557C12.9858 13.9945 12.9977 13.4095 13 12.625H4.486C3.7525 12.625 3.496 12.6295 3.29875 12.6827C3.03441 12.7537 2.79128 12.8878 2.59032 13.0736C2.38937 13.2594 2.23737 13.4913 2.146 13.7493Z" fill="#333333"/>
</svg>
