<svg width="19" height="18" viewBox="0 0 19 18" fill="none" xmlns="http://www.w3.org/2000/svg">
<g clip-path="url(#clip0_1529_22)">
<path d="M9.478 9.73912L12.6595 6.55538C12.7641 6.45093 12.8882 6.3681 13.0249 6.31163C13.1615 6.25516 13.3079 6.22614 13.4557 6.22625C13.6035 6.22635 13.7498 6.25557 13.8864 6.31224C14.0229 6.3689 14.1469 6.4519 14.2514 6.5565C14.3558 6.6611 14.4387 6.78524 14.4951 6.92185C14.5516 7.05846 14.5806 7.20485 14.5805 7.35267C14.5804 7.50049 14.5512 7.64684 14.4945 7.78337C14.4378 7.9199 14.3548 8.04392 14.2502 8.14838L10.2734 12.1252C10.169 12.2299 10.045 12.313 9.90842 12.3697C9.77189 12.4264 9.62551 12.4557 9.47767 12.4558C9.32983 12.4559 9.18341 12.4268 9.0468 12.3703C8.91019 12.3138 8.78606 12.2309 8.6815 12.1264L6.2965 9.74138C6.18898 9.63767 6.10319 9.5136 6.04413 9.37638C5.98508 9.23917 5.95394 9.09157 5.95254 8.9422C5.95114 8.79282 5.9795 8.64467 6.03597 8.50637C6.09243 8.36807 6.17588 8.24241 6.28143 8.1367C6.38699 8.031 6.51253 7.94738 6.65075 7.89071C6.78897 7.83405 6.93709 7.80548 7.08646 7.80667C7.23584 7.80786 7.38348 7.83879 7.52078 7.89765C7.65807 7.95651 7.78227 8.04213 7.88612 8.1495L9.478 9.73912ZM10 18C7.61305 18 5.32387 17.0518 3.63604 15.364C1.94821 13.6761 1 11.3869 1 9C1 6.61305 1.94821 4.32387 3.63604 2.63604C5.32387 0.948212 7.61305 0 10 0C12.3869 0 14.6761 0.948212 16.364 2.63604C18.0518 4.32387 19 6.61305 19 9C19 11.3869 18.0518 13.6761 16.364 15.364C14.6761 17.0518 12.3869 18 10 18ZM10 15.75C10.8864 15.75 11.7642 15.5754 12.5831 15.2362C13.4021 14.897 14.1462 14.3998 14.773 13.773C15.3998 13.1462 15.897 12.4021 16.2362 11.5831C16.5754 10.7642 16.75 9.88642 16.75 9C16.75 8.11358 16.5754 7.23583 16.2362 6.41689C15.897 5.59794 15.3998 4.85382 14.773 4.22703C14.1462 3.60023 13.4021 3.10303 12.5831 2.76381C11.7642 2.42459 10.8864 2.25 10 2.25C8.20979 2.25 6.4929 2.96116 5.22703 4.22703C3.96116 5.4929 3.25 7.20979 3.25 9C3.25 10.7902 3.96116 12.5071 5.22703 13.773C6.4929 15.0388 8.20979 15.75 10 15.75Z" fill="#333333"/>
</g>
<defs>
<clipPath id="clip0_1529_22">
<rect width="18" height="18" fill="white" transform="translate(1)"/>
</clipPath>
</defs>
</svg>
