<svg width="18" height="18" viewBox="0 0 18 18" fill="none" xmlns="http://www.w3.org/2000/svg">
<path d="M9.125 1L16.25 5.125V13.375L9.125 17.5L2 13.375V5.125L9.125 1ZM9.125 2.73325L3.5 5.98975V12.5103L9.125 15.7667L14.75 12.5103V5.98975L9.125 2.73325ZM9.125 12.25C8.32935 12.25 7.56629 11.9339 7.00368 11.3713C6.44107 10.8087 6.125 10.0456 6.125 9.25C6.125 8.45435 6.44107 7.69129 7.00368 7.12868C7.56629 6.56607 8.32935 6.25 9.125 6.25C9.92065 6.25 10.6837 6.56607 11.2463 7.12868C11.8089 7.69129 12.125 8.45435 12.125 9.25C12.125 10.0456 11.8089 10.8087 11.2463 11.3713C10.6837 11.9339 9.92065 12.25 9.125 12.25ZM9.125 10.75C9.52282 10.75 9.90436 10.592 10.1857 10.3107C10.467 10.0294 10.625 9.64782 10.625 9.25C10.625 8.85218 10.467 8.47064 10.1857 8.18934C9.90436 7.90804 9.52282 7.75 9.125 7.75C8.72718 7.75 8.34564 7.90804 8.06434 8.18934C7.78304 8.47064 7.625 8.85218 7.625 9.25C7.625 9.64782 7.78304 10.0294 8.06434 10.3107C8.34564 10.592 8.72718 10.75 9.125 10.75Z" fill="#333333"/>
</svg>
