<svg width="18" height="18" viewBox="0 0 18 18" fill="none" xmlns="http://www.w3.org/2000/svg">
<g clip-path="url(#clip0_1531_4)">
<g clip-path="url(#clip1_1531_4)">
<path d="M9 12C10.6569 12 12 10.6569 12 9C12 7.34315 10.6569 6 9 6C7.34315 6 6 7.34315 6 9C6 10.6569 7.34315 12 9 12Z" stroke="#333333" stroke-width="1.5"/>
<path d="M11.25 6.75L14.25 3.75M3.75 14.25L6.75 11.25M6.75 6.75L3.75 3.75M14.25 14.25L11.25 11.25" stroke="#333333" stroke-width="1.5"/>
<path d="M7.05912 1.75404C8.33061 1.41221 9.66989 1.41273 10.9411 1.75554C14.9424 2.82804 17.3161 6.94029 16.2444 10.9408C15.1719 14.942 11.0604 17.3158 7.05912 16.244C3.05787 15.1715 0.684116 11.06 1.75587 7.05879C2.09448 5.78637 2.76361 4.62614 3.69537 3.69579" stroke="#333333" stroke-width="1.5" stroke-linecap="round"/>
</g>
</g>
<defs>
<clipPath id="clip0_1531_4">
<rect width="18" height="18" fill="white"/>
</clipPath>
<clipPath id="clip1_1531_4">
<rect width="18" height="18" fill="white"/>
</clipPath>
</defs>
</svg>
