<svg width="16" height="18" viewBox="0 0 16 18" fill="none" xmlns="http://www.w3.org/2000/svg">
<path d="M8.2765 2.09544L13.5265 4.06419C13.8125 4.17139 14.0589 4.36333 14.2329 4.61435C14.4068 4.86538 14.5 5.16352 14.5 5.46894V9.49119C14.5 10.7448 14.151 11.9736 13.4919 13.0399C12.8329 14.1063 11.89 14.9681 10.7687 15.5287L8.25325 16.7864C8.097 16.8646 7.9247 16.9053 7.75 16.9053C7.5753 16.9053 7.403 16.8646 7.24675 16.7864L4.73125 15.5287C3.61003 14.9681 2.66708 14.1063 2.00805 13.0399C1.34903 11.9736 0.999973 10.7448 1 9.49119V5.46894C0.999962 5.16352 1.09315 4.86538 1.26711 4.61435C1.44108 4.36333 1.68752 4.17139 1.9735 4.06419L7.2235 2.09544C7.56297 1.96819 7.93703 1.96819 8.2765 2.09544ZM7.75 3.50019L2.5 5.46894V9.49119C2.50017 10.4661 2.77179 11.4217 3.28444 12.2509C3.79708 13.0802 4.53049 13.7503 5.4025 14.1862L7.75 15.3614L10.0975 14.1877C10.9697 13.7517 11.7033 13.0813 12.216 12.2518C12.7286 11.4223 13.0001 10.4663 13 9.49119V5.46894L7.75 3.50019ZM7.75 10.9492C7.94891 10.9492 8.13968 11.0282 8.28033 11.1689C8.42098 11.3095 8.5 11.5003 8.5 11.6992C8.5 11.8981 8.42098 12.0889 8.28033 12.2295C8.13968 12.3702 7.94891 12.4492 7.75 12.4492C7.55109 12.4492 7.36032 12.3702 7.21967 12.2295C7.07902 12.0889 7 11.8981 7 11.6992C7 11.5003 7.07902 11.3095 7.21967 11.1689C7.36032 11.0282 7.55109 10.9492 7.75 10.9492ZM7.75 5.69919C7.94891 5.69919 8.13968 5.7782 8.28033 5.91886C8.42098 6.05951 8.5 6.25027 8.5 6.44919V9.44919C8.5 9.6481 8.42098 9.83886 8.28033 9.97952C8.13968 10.1202 7.94891 10.1992 7.75 10.1992C7.55109 10.1992 7.36032 10.1202 7.21967 9.97952C7.07902 9.83886 7 9.6481 7 9.44919V6.44919C7 6.25027 7.07902 6.05951 7.21967 5.91886C7.36032 5.7782 7.55109 5.69919 7.75 5.69919Z" fill="#333333"/>
</svg>
