<svg width="32" height="32" viewBox="0 0 32 32" fill="none" xmlns="http://www.w3.org/2000/svg">
<g clip-path="url(#clip0_835_2)">
<path d="M13.4962 2.27166e-07C13.1898 -0.000256773 12.9262 0.217577 12.8675 0.51952L11.79 6.05607C11.7523 6.2508 11.8062 6.45212 11.9362 6.60153C12.0662 6.75093 12.2577 6.83168 12.455 6.8203C16.6188 6.58255 19.3789 7.8364 21.1437 9.65508C22.9086 11.4738 23.68 13.9089 23.68 16.0625C23.68 20.3285 20.2493 23.7725 16 23.7725C11.7499 23.7725 8.4553 20.3579 8.59499 16.0939C8.66663 13.9088 9.46659 12.4514 10.5925 11.5136C11.7184 10.5757 13.2085 10.1621 14.6737 10.2386C16.139 10.3152 17.5592 10.8852 18.5237 11.8373C19.4883 12.7894 20.0343 14.0971 19.7912 15.8504C19.6246 17.0523 19.0962 17.7851 18.4087 18.2711C17.7213 18.7571 16.8452 18.9739 16.0475 18.9739C15.0837 18.9739 14.4337 18.5917 13.975 18.049C13.5163 17.5063 13.2825 16.779 13.2825 16.198C13.2825 15.6404 13.4392 15.0395 13.775 14.6194C14.1108 14.1993 14.6078 13.8974 15.5525 13.9104C16.5708 13.9243 17.0017 14.5708 17.0662 15.1966C17.0985 15.5096 17.0198 15.7939 16.8637 15.986C16.7077 16.1781 16.4775 16.3223 16.0137 16.3223C15.7829 16.319 15.5682 16.4407 15.4519 16.6409C15.3355 16.841 15.3355 17.0885 15.4519 17.2887C15.5682 17.4888 15.7829 17.6106 16.0137 17.6073C16.7909 17.6073 17.4526 17.2932 17.855 16.7979C18.2574 16.3026 18.4026 15.6703 18.34 15.0636C18.2148 13.8503 17.1795 12.6474 15.57 12.6254C14.3118 12.6081 13.3489 13.0999 12.7762 13.8163C12.2036 14.5326 12.0025 15.4115 12.0025 16.198C12.0025 17.1026 12.328 18.0847 13 18.8797C13.672 19.6748 14.7245 20.2588 16.0475 20.2588C17.0693 20.2588 18.1928 19.9947 19.145 19.3214C20.0972 18.6482 20.8484 17.544 21.0587 16.0274C21.352 13.9112 20.6462 12.1305 19.4212 10.9213C18.1963 9.71203 16.4891 9.04742 14.7412 8.95611C12.9934 8.86481 11.1846 9.35157 9.77624 10.5247C8.36783 11.6979 7.39788 13.5612 7.31624 16.0512C7.15384 21.0084 11.0596 25.0575 16 25.0575C20.941 25.0575 24.96 21.0229 24.96 16.0625C24.96 13.603 24.091 10.8507 22.06 8.75784C20.161 6.80099 17.2029 5.5215 13.19 5.56416L14.0225 1.28501H17.9825C18.0554 1.67502 18.282 2.91753 18.7275 4.95303C18.7771 5.17881 18.9437 5.36043 19.1637 5.42863C20.0145 5.69302 20.7735 6.03567 21.4462 6.45262C21.6715 6.59232 21.9592 6.57835 22.17 6.41748L25.0325 4.23148L27.7912 7.00226L25.45 10.2248C25.304 10.4256 25.2865 10.6929 25.405 10.9112C25.7659 11.5743 26.055 12.2843 26.2725 13.0282C26.3427 13.2668 26.5438 13.4433 26.7887 13.4812L30.72 14.0986V18.0264L26.7887 18.6426C26.544 18.6811 26.3434 18.8581 26.2737 19.0968C26.0562 19.8408 25.767 20.5505 25.4062 21.2126C25.2868 21.4309 25.3039 21.6989 25.45 21.9002L27.7925 25.1228L25.025 27.8998L21.815 25.5494C21.615 25.4029 21.3487 25.3853 21.1313 25.5043C20.4708 25.8666 19.7635 26.1568 19.0225 26.3752C18.7848 26.4456 18.609 26.6475 18.5713 26.8934L17.9562 30.84H14.0438L13.43 26.8934C13.3916 26.6477 13.2153 26.4463 12.9775 26.3764C12.2365 26.158 11.5305 25.8678 10.87 25.5055C10.6525 25.3856 10.3855 25.4027 10.185 25.5494L6.97501 27.9011L4.20875 25.1228L6.55 21.9002C6.69601 21.6994 6.71354 21.4321 6.595 21.2138C6.23409 20.5508 5.94502 19.8408 5.7275 19.0968C5.65729 18.8582 5.45619 18.6817 5.21125 18.6438L1.28 18.0264V14.0986L5.21125 13.4825C5.45603 13.4439 5.65664 13.2669 5.72625 13.0282C5.94378 12.2843 6.23284 11.5755 6.59375 10.9125C6.71318 10.6941 6.69613 10.4261 6.55 10.2248L4.2075 7.00227L6.975 4.22395L9.1725 5.82769C9.35761 5.96269 9.6004 5.98828 9.80939 5.89482C10.0184 5.80136 10.1618 5.60305 10.1857 5.37461C10.2095 5.14618 10.1102 4.92232 9.925 4.78739L7.28625 2.8624C7.0316 2.6766 6.68017 2.70427 6.4575 2.92766L2.915 6.48274C2.69217 6.70679 2.66511 7.0604 2.85124 7.31599L5.30749 10.6954C5.05606 11.2018 4.84129 11.7263 4.6625 12.2678L0.541248 12.914C0.229638 12.9629 -5.75892e-05 13.2324 1.08307e-08 13.549V18.5761C-5.11892e-05 18.8927 0.229645 19.1622 0.541248 19.211L4.6625 19.8573C4.84136 20.3991 5.05589 20.9242 5.30749 21.4309L2.85124 24.8103C2.66616 25.066 2.69372 25.4188 2.91624 25.6423L6.45749 29.1987C6.68067 29.4224 7.0329 29.4495 7.28749 29.2627L10.6537 26.7968C11.1581 27.0492 11.6807 27.2648 12.22 27.4443L12.8638 31.5817C12.9124 31.8945 13.1809 32.1251 13.4962 32.125H18.5037C18.8191 32.1251 19.0876 31.8945 19.1362 31.5817L19.78 27.4443C20.3197 27.2648 20.8428 27.0494 21.3475 26.7968L24.7138 29.2627C24.9684 29.4485 25.3198 29.4208 25.5425 29.1974L29.085 25.6423C29.3078 25.4183 29.3349 25.0647 29.1488 24.8091L26.6925 21.4297C26.9439 20.9236 27.1588 20.3986 27.3375 19.8573L31.4588 19.211C31.7704 19.1622 32.0001 18.8927 32 18.5761V13.549C32.0001 13.2324 31.7704 12.9629 31.4588 12.914L27.3375 12.2678C27.1586 11.7259 26.9441 11.2009 26.6925 10.6941L29.1488 7.31474C29.3338 7.0591 29.3063 6.7063 29.0838 6.48275L25.5425 2.92641C25.316 2.69936 24.9572 2.67524 24.7025 2.86994L21.6925 5.16763C21.1396 4.8585 20.5495 4.58914 19.915 4.36827C19.4716 2.30485 19.1338 0.525816 19.1338 0.525816C19.0776 0.220911 18.8126 -0.000269903 18.5038 1.9222e-05L13.4962 2.27166e-07Z" fill="#0B3243"/>
</g>
<defs>
<clipPath id="clip0_835_2">
<rect width="32" height="32" fill="white"/>
</clipPath>
</defs>
</svg>
