<svg width="32" height="32" viewBox="0 0 32 32" fill="none" xmlns="http://www.w3.org/2000/svg">
<g clip-path="url(#clip0_835_2)">
<path d="M23.5 10.2502C22.8494 10.2494 22.2138 10.445 21.6763 10.8115C21.5467 10.2163 21.2526 9.66942 20.8273 9.23334C20.402 8.79725 19.8627 8.48946 19.271 8.34507C18.6792 8.20068 18.0587 8.2255 17.4804 8.4167C16.9021 8.6079 16.3891 8.95779 16 9.42645C15.5731 8.91254 14.9982 8.54266 14.3536 8.3672C13.7089 8.19173 13.0259 8.2192 12.3974 8.44586C11.7689 8.67252 11.2256 9.08736 10.8413 9.6339C10.4571 10.1804 10.2506 10.8321 10.25 11.5002V14.2502H8.5C7.63805 14.2502 6.8114 14.5926 6.2019 15.2021C5.59241 15.8116 5.25 16.6383 5.25 17.5002V19.0002C5.25 21.8513 6.38259 24.5856 8.3986 26.6016C10.4146 28.6176 13.1489 29.7502 16 29.7502C18.8511 29.7502 21.5854 28.6176 23.6014 26.6016C25.6174 24.5856 26.75 21.8513 26.75 19.0002V13.5002C26.75 13.0734 26.6659 12.6508 26.5026 12.2565C26.3393 11.8622 26.0999 11.5039 25.7981 11.2021C25.4963 10.9003 25.138 10.6609 24.7437 10.4976C24.3494 10.3343 23.9268 10.2502 23.5 10.2502ZM25.25 19.0002C25.25 21.4535 24.2754 23.8062 22.5407 25.5409C20.806 27.2757 18.4533 28.2502 16 28.2502C13.5467 28.2502 11.194 27.2757 9.45926 25.5409C7.72455 23.8062 6.75 21.4535 6.75 19.0002V17.5002C6.75 17.0361 6.93437 16.591 7.26256 16.2628C7.59075 15.9346 8.03587 15.7502 8.5 15.7502H10.25V19.0002C10.25 19.1991 10.329 19.3899 10.4697 19.5305C10.6103 19.6712 10.8011 19.7502 11 19.7502C11.1989 19.7502 11.3897 19.6712 11.5303 19.5305C11.671 19.3899 11.75 19.1991 11.75 19.0002V11.5002C11.75 11.0361 11.9344 10.591 12.2626 10.2628C12.5908 9.93458 13.0359 9.7502 13.5 9.7502C13.9641 9.7502 14.4092 9.93458 14.7374 10.2628C15.0656 10.591 15.25 11.0361 15.25 11.5002V15.0002C15.25 15.1991 15.329 15.3899 15.4697 15.5305C15.6103 15.6712 15.8011 15.7502 16 15.7502C16.1989 15.7502 16.3897 15.6712 16.5303 15.5305C16.671 15.3899 16.75 15.1991 16.75 15.0002V11.5002C16.75 11.0361 16.9344 10.591 17.2626 10.2628C17.5908 9.93458 18.0359 9.7502 18.5 9.7502C18.9641 9.7502 19.4092 9.93458 19.7374 10.2628C20.0656 10.591 20.25 11.0361 20.25 11.5002V15.0002C20.25 15.1991 20.329 15.3899 20.4697 15.5305C20.6103 15.6712 20.8011 15.7502 21 15.7502C21.1989 15.7502 21.3897 15.6712 21.5303 15.5305C21.671 15.3899 21.75 15.1991 21.75 15.0002V13.5002C21.75 13.0361 21.9344 12.591 22.2626 12.2628C22.5908 11.9346 23.0359 11.7502 23.5 11.7502C23.9641 11.7502 24.4092 11.9346 24.7374 12.2628C25.0656 12.591 25.25 13.0361 25.25 13.5002V19.0002Z" fill="#0B3243"/>
</g>
<defs>
<clipPath id="clip0_835_2">
<rect width="32" height="32" fill="white"/>
</clipPath>
</defs>
</svg>
