<svg width="32" height="32" viewBox="0 0 32 32" fill="none" xmlns="http://www.w3.org/2000/svg">
<g clip-path="url(#clip0_1408_2)">
<path d="M16.7792 4.0016C17.7242 4.0016 18.6305 4.37701 19.2988 5.04524C19.967 5.71347 20.3424 6.61978 20.3424 7.5648C20.3424 8.50982 19.967 9.41613 19.2988 10.0844C18.6305 10.7526 17.7242 11.128 16.7792 11.128C15.834 11.128 14.9275 10.7525 14.2591 10.0841C13.5907 9.41575 13.2152 8.50923 13.2152 7.564C13.2152 6.61877 13.5907 5.71225 14.2591 5.04387C14.9275 4.37549 15.834 4.0016 16.7792 4.0016ZM16.7792 5.6016C16.2585 5.6016 15.7592 5.80844 15.391 6.17661C15.0228 6.54478 14.816 7.04413 14.816 7.5648C14.816 8.08547 15.0228 8.58482 15.391 8.95299C15.7592 9.32116 16.2585 9.528 16.7792 9.528C17.3001 9.528 17.7996 9.32108 18.168 8.95276C18.5363 8.58444 18.7432 8.08488 18.7432 7.564C18.7432 7.04311 18.5363 6.54356 18.168 6.17524C17.7996 5.80692 17.3001 5.6016 16.7792 5.6016ZM5.6256 17.6176C5.6256 17.8298 5.54131 18.0333 5.39129 18.1833C5.24126 18.3333 5.03777 18.4176 4.8256 18.4176C4.61343 18.4176 4.40994 18.3333 4.25991 18.1833C4.10989 18.0333 4.0256 17.8298 4.0256 17.6176V13.64C4.02565 13.2481 4.16953 12.8699 4.42994 12.577C4.69036 12.2841 5.0492 12.0971 5.4384 12.0512L5.6256 12.04H10.0368C9.80399 12.4417 9.662 12.8895 9.6208 13.352L9.608 13.64H5.624L5.6256 17.6176ZM28.784 18.4176C28.9962 18.4176 29.1997 18.3333 29.3497 18.1833C29.4997 18.0333 29.584 17.8298 29.584 17.6176V13.64L29.5728 13.4544C29.5273 13.0649 29.3404 12.7057 29.0475 12.4449C28.7546 12.1842 28.3761 12.0401 27.984 12.04H23.5296C23.7632 12.4448 23.9136 12.9088 23.9488 13.4016L23.9568 13.6416H27.984V17.6176C27.984 17.8298 28.0683 18.0333 28.2183 18.1833C28.3683 18.3333 28.5718 18.4176 28.784 18.4176ZM20.7584 12.04C21.1505 12.0401 21.529 12.1842 21.8219 12.4449C22.1148 12.7057 22.3017 13.0649 22.3472 13.4544L22.3568 13.64V17.6176C22.3568 17.8298 22.2725 18.0333 22.1225 18.1833C21.9725 18.3333 21.769 18.4176 21.5568 18.4176C21.3446 18.4176 21.1411 18.3333 20.9911 18.1833C20.8411 18.0333 20.7568 17.8298 20.7568 17.6176V13.64H12.808V17.6176C12.808 17.8298 12.7237 18.0333 12.5737 18.1833C12.4237 18.3333 12.2202 18.4176 12.008 18.4176C11.7958 18.4176 11.5923 18.3333 11.4423 18.1833C11.2923 18.0333 11.208 17.8298 11.208 17.6176V13.64C11.2081 13.2481 11.3519 12.8699 11.6123 12.577C11.8728 12.2841 12.2316 12.0971 12.6208 12.0512L12.808 12.04H20.7568H20.7584ZM27.8208 8.0672C27.8208 7.25521 27.4982 6.47648 26.9241 5.90232C26.3499 5.32816 25.5712 5.0056 24.7592 5.0056C23.9472 5.0056 23.1685 5.32816 22.5943 5.90232C22.0202 6.47648 21.6976 7.25521 21.6976 8.0672C21.6976 8.87919 22.0202 9.65792 22.5943 10.2321C23.1685 10.8062 23.9472 11.1288 24.7592 11.1288C25.5712 11.1288 26.3499 10.8062 26.9241 10.2321C27.4982 9.65792 27.8208 8.87919 27.8208 8.0672ZM23.2976 8.0672C23.2976 7.67956 23.4516 7.3078 23.7257 7.03369C23.9998 6.75959 24.3716 6.6056 24.7592 6.6056C25.1468 6.6056 25.5186 6.75959 25.7927 7.03369C26.0668 7.3078 26.2208 7.67956 26.2208 8.0672C26.2208 8.45484 26.0668 8.8266 25.7927 9.10071C25.5186 9.37481 25.1468 9.5288 24.7592 9.5288C24.3716 9.5288 23.9998 9.37481 23.7257 9.10071C23.4516 8.8266 23.2976 8.45484 23.2976 8.0672ZM8.8256 5.0048C9.63759 5.0048 10.4163 5.32736 10.9905 5.90152C11.5646 6.47568 11.8872 7.25441 11.8872 8.0664C11.8872 8.87839 11.5646 9.65712 10.9905 10.2313C10.4163 10.8054 9.63759 11.128 8.8256 11.128C8.01361 11.128 7.23488 10.8054 6.66072 10.2313C6.08656 9.65712 5.764 8.87839 5.764 8.0664C5.764 7.25441 6.08656 6.47568 6.66072 5.90152C7.23488 5.32736 8.01361 5.0048 8.8256 5.0048ZM8.8256 6.6048C8.43796 6.6048 8.0662 6.75879 7.79209 7.03289C7.51799 7.307 7.364 7.67876 7.364 8.0664C7.364 8.45404 7.51799 8.8258 7.79209 9.09991C8.0662 9.37401 8.43796 9.528 8.8256 9.528C9.21324 9.528 9.585 9.37401 9.85911 9.09991C10.1332 8.8258 10.2872 8.45404 10.2872 8.0664C10.2872 7.67876 10.1332 7.307 9.85911 7.03289C9.585 6.75879 9.21324 6.6048 8.8256 6.6048ZM4.8 20.0176C4.58783 20.0176 4.38434 20.1019 4.23431 20.2519C4.08429 20.4019 4 20.6054 4 20.8176V22.4176C4 23.4785 4.42143 24.4959 5.17157 25.246C5.92172 25.9962 6.93913 26.4176 8 26.4176H25.6C26.6609 26.4176 27.6783 25.9962 28.4284 25.246C29.1786 24.4959 29.6 23.4785 29.6 22.4176V20.8176C29.6 20.6054 29.5157 20.4019 29.3657 20.2519C29.2157 20.1019 29.0122 20.0176 28.8 20.0176H4.8ZM5.6 22.4176V21.6176H28V22.4176C28 23.0541 27.7471 23.6646 27.2971 24.1147C26.847 24.5647 26.2365 24.8176 25.6 24.8176H8C7.36348 24.8176 6.75303 24.5647 6.30294 24.1147C5.85286 23.6646 5.6 23.0541 5.6 22.4176Z" fill="#333333"/>
</g>
<defs>
<clipPath id="clip0_1408_2">
<rect width="32" height="32" fill="white"/>
</clipPath>
</defs>
</svg>
