<svg width="32" height="32" viewBox="0 0 32 32" fill="none" xmlns="http://www.w3.org/2000/svg">
<g clip-path="url(#clip0_1408_2)">
<path d="M25.3333 22.6665V25.3332H9.33333V22.6665C9.33333 22.6665 9.33333 17.3332 17.3333 17.3332C25.3333 17.3332 25.3333 22.6665 25.3333 22.6665ZM21.3333 10.6665C21.3333 9.87538 21.0987 9.10202 20.6592 8.44422C20.2197 7.78643 19.595 7.27374 18.8641 6.97099C18.1332 6.66824 17.3289 6.58902 16.553 6.74336C15.777 6.89771 15.0643 7.27867 14.5049 7.83808C13.9455 8.39749 13.5645 9.11022 13.4102 9.88614C13.2559 10.6621 13.3351 11.4663 13.6378 12.1972C13.9406 12.9281 14.4533 13.5529 15.1111 13.9924C15.7688 14.4319 16.5422 14.6665 17.3333 14.6665C18.3942 14.6665 19.4116 14.2451 20.1618 13.4949C20.9119 12.7448 21.3333 11.7274 21.3333 10.6665ZM25.6 17.4132C26.3288 18.0856 26.9164 18.8964 27.3285 19.7984C27.7406 20.7004 27.9688 21.6754 28 22.6665V25.3332H32V22.6665C32 22.6665 32 18.0665 25.6 17.4132ZM24 6.66651C23.5972 6.66675 23.1968 6.72972 22.8133 6.85317C23.5934 7.9718 24.0116 9.30275 24.0116 10.6665C24.0116 12.0303 23.5934 13.3612 22.8133 14.4798C23.1968 14.6033 23.5972 14.6663 24 14.6665C25.0609 14.6665 26.0783 14.2451 26.8284 13.4949C27.5786 12.7448 28 11.7274 28 10.6665C28 9.60564 27.5786 8.58822 26.8284 7.83808C26.0783 7.08793 25.0609 6.66651 24 6.66651ZM10.6667 13.3332H6.66667V9.33317H4V13.3332H0V15.9998H4V19.9998H6.66667V15.9998H10.6667V13.3332Z" fill="#333333"/>
</g>
<defs>
<clipPath id="clip0_1408_2">
<rect width="32" height="32" fill="white"/>
</clipPath>
</defs>
</svg>
