<svg width="32" height="32" viewBox="0 0 32 32" fill="none" xmlns="http://www.w3.org/2000/svg">
<path d="M24.9 25.7827L25.628 25.0533L23.18 22.6053V18.9733H22.1533V23.0347L24.9 25.7827ZM6.15333 25.3333C5.55778 25.3333 5.04978 25.1236 4.62933 24.704C4.20978 24.2844 4 23.7764 4 23.18V6.15333C4 5.55778 4.20978 5.04978 4.62933 4.62933C5.04889 4.20978 5.55689 4 6.15333 4H23.18C23.7756 4 24.2836 4.20978 24.704 4.62933C25.1236 5.04889 25.3333 5.55689 25.3333 6.15333V14.0867C25.0996 14.0067 24.8756 13.9413 24.6613 13.8907C24.448 13.8409 24.2276 13.7911 24 13.7413V6.15467C24 5.94933 23.9147 5.76089 23.744 5.58933C23.5724 5.41867 23.3844 5.33333 23.18 5.33333H6.15333C5.94889 5.33333 5.76089 5.41867 5.58933 5.58933C5.41867 5.76089 5.33333 5.94889 5.33333 6.15333V23.18C5.33333 23.3844 5.41867 23.5724 5.58933 23.744C5.76089 23.9147 5.94889 24 6.15333 24H13.708C13.74 24.2489 13.7813 24.4804 13.832 24.6947C13.8827 24.908 13.948 25.1209 14.028 25.3333H6.15333ZM5.33333 22.6667V24V5.33333V13.7413V13.6413V22.6667ZM8.66667 20.36H13.9467C13.9956 20.1316 14.0622 19.9107 14.1467 19.6973L14.4133 19.0253H8.66667V20.3587V20.36ZM8.66667 15.3333H17.44C17.8782 15.0258 18.3093 14.7649 18.7333 14.5507C19.1591 14.3373 19.6156 14.1702 20.1027 14.0493V14H8.66667V15.3333ZM8.66667 10.3067H20.6667V8.97333H8.66667V10.3067ZM22.6667 28.1547C21.1813 28.1547 19.9209 27.6373 18.8853 26.6027C17.8498 25.568 17.3324 24.3071 17.3333 22.82C17.3333 21.3356 17.8507 20.0756 18.8853 19.04C19.92 18.0044 21.1804 17.4867 22.6667 17.4867C24.152 17.4867 25.4124 18.0044 26.448 19.04C27.4836 20.0756 28.0009 21.3356 28 22.82C28 24.3062 27.4827 25.5667 26.448 26.6013C25.4116 27.636 24.1511 28.1547 22.6667 28.1547Z" fill="#333333"/>
</svg>
