<svg width="18" height="18" viewBox="0 0 18 18" fill="none" xmlns="http://www.w3.org/2000/svg">
<g clip-path="url(#clip0_1531_4)">
<path d="M6.3002 4.0502C6.3002 4.3706 6.2336 4.6748 6.113 4.9502H9.0002C9.11954 4.9502 9.234 4.99761 9.31839 5.082C9.40279 5.16639 9.4502 5.28085 9.4502 5.4002V7.2002H9.0002C8.52281 7.2002 8.06497 7.38984 7.7274 7.7274C7.38984 8.06497 7.2002 8.52281 7.2002 9.0002V9.4502H5.4002C5.28085 9.4502 5.16639 9.40279 5.082 9.31839C4.99761 9.234 4.9502 9.11954 4.9502 9.0002V6.113C4.52569 6.29871 4.05408 6.34839 3.6002 6.2552V9.0002C3.6002 9.47759 3.78984 9.93542 4.1274 10.273C4.46497 10.6106 4.92281 10.8002 5.4002 10.8002H7.2002V12.6002C7.2002 13.0776 7.38984 13.5354 7.7274 13.873C8.06497 14.2106 8.52281 14.4002 9.0002 14.4002H11.7452C11.6532 13.9463 11.7028 13.475 11.8874 13.0502H9.0002C8.88085 13.0502 8.76639 13.0028 8.682 12.9184C8.59761 12.834 8.5502 12.7195 8.5502 12.6002V10.8002H9.0002C9.47759 10.8002 9.93542 10.6106 10.273 10.273C10.6106 9.93542 10.8002 9.47759 10.8002 9.0002V8.5502H12.6002C12.7195 8.5502 12.834 8.59761 12.9184 8.682C13.0028 8.76639 13.0502 8.88085 13.0502 9.0002V11.8874C13.4747 11.7016 13.9463 11.6519 14.4002 11.7452V9.0002C14.4002 8.52281 14.2106 8.06497 13.873 7.7274C13.5354 7.38984 13.0776 7.2002 12.6002 7.2002H10.8002V5.4002C10.8002 4.92281 10.6106 4.46497 10.273 4.1274C9.93542 3.78984 9.47759 3.6002 9.0002 3.6002H6.2552C6.2849 3.746 6.3002 3.8963 6.3002 4.0502ZM9.4502 8.5502V9.0002C9.4502 9.11954 9.40279 9.234 9.31839 9.31839C9.234 9.40279 9.11954 9.4502 9.0002 9.4502H8.5502V9.0002C8.5502 8.88085 8.59761 8.76639 8.682 8.682C8.76639 8.59761 8.88085 8.5502 9.0002 8.5502H9.4502ZM5.4002 4.0502C5.4002 4.40824 5.25796 4.75162 5.00479 5.00479C4.75162 5.25796 4.40824 5.4002 4.0502 5.4002C3.69215 5.4002 3.34878 5.25796 3.0956 5.00479C2.84243 4.75162 2.7002 4.40824 2.7002 4.0502C2.7002 3.69215 2.84243 3.34878 3.0956 3.0956C3.34878 2.84243 3.69215 2.7002 4.0502 2.7002C4.40824 2.7002 4.75162 2.84243 5.00479 3.0956C5.25796 3.34878 5.4002 3.69215 5.4002 4.0502ZM15.3002 13.9502C15.3002 14.3082 15.158 14.6516 14.9048 14.9048C14.6516 15.158 14.3082 15.3002 13.9502 15.3002C13.5922 15.3002 13.2488 15.158 12.9956 14.9048C12.7424 14.6516 12.6002 14.3082 12.6002 13.9502C12.6002 13.5922 12.7424 13.2488 12.9956 12.9956C13.2488 12.7424 13.5922 12.6002 13.9502 12.6002C14.3082 12.6002 14.6516 12.7424 14.9048 12.9956C15.158 13.2488 15.3002 13.5922 15.3002 13.9502ZM15.3002 4.0502C15.3002 4.40824 15.158 4.75162 14.9048 5.00479C14.6516 5.25796 14.3082 5.4002 13.9502 5.4002C13.5922 5.4002 13.2488 5.25796 12.9956 5.00479C12.7424 4.75162 12.6002 4.40824 12.6002 4.0502C12.6002 3.69215 12.7424 3.34878 12.9956 3.0956C13.2488 2.84243 13.5922 2.7002 13.9502 2.7002C14.3082 2.7002 14.6516 2.84243 14.9048 3.0956C15.158 3.34878 15.3002 3.69215 15.3002 4.0502ZM5.4002 13.9502C5.4002 14.3082 5.25796 14.6516 5.00479 14.9048C4.75162 15.158 4.40824 15.3002 4.0502 15.3002C3.69215 15.3002 3.34878 15.158 3.0956 14.9048C2.84243 14.6516 2.7002 14.3082 2.7002 13.9502C2.7002 13.5922 2.84243 13.2488 3.0956 12.9956C3.34878 12.7424 3.69215 12.6002 4.0502 12.6002C4.40824 12.6002 4.75162 12.7424 5.00479 12.9956C5.25796 13.2488 5.4002 13.5922 5.4002 13.9502Z" fill="#333333"/>
</g>
<defs>
<clipPath id="clip0_1531_4">
<rect width="18" height="18" fill="white"/>
</clipPath>
</defs>
</svg>
