<svg width="16" height="18" viewBox="0 0 16 18" fill="none" xmlns="http://www.w3.org/2000/svg">
<path d="M11.0388 15.7888C10.2028 15.7888 9.49375 15.4978 8.91175 14.9158C8.32975 14.3328 8.03875 13.6238 8.03875 12.7888C8.03875 11.9538 8.32975 11.2447 8.91175 10.6617C9.49375 10.0797 10.2028 9.78875 11.0388 9.78875C11.8738 9.78875 12.5825 10.0797 13.165 10.6617C13.7475 11.2437 14.0388 11.9528 14.0388 12.7888C14.0388 13.6243 13.7475 14.3333 13.165 14.9158C12.5825 15.4983 11.8738 15.7893 11.0388 15.7888ZM12.28 14.4402L12.6902 14.0308L11.3267 12.6672V10.625H10.75V12.9103L12.28 14.4402ZM2.21125 15.0388C1.87625 15.0388 1.5905 14.9208 1.354 14.6848C1.118 14.4488 1 14.163 1 13.8275V4.25C1 3.915 1.118 3.62925 1.354 3.39275C1.59 3.15675 1.87575 3.03875 2.21125 3.03875H5.689C5.759 2.74525 5.91475 2.49875 6.15625 2.29925C6.39775 2.09975 6.679 2 7 2C7.327 2 7.6105 2.1 7.8505 2.3C8.0905 2.499 8.2455 2.74525 8.3155 3.03875H11.788C12.124 3.03875 12.41 3.15675 12.646 3.39275C12.882 3.62875 13 3.9145 13 4.25V8.765C12.871 8.6985 12.749 8.64025 12.634 8.59025C12.519 8.54025 12.391 8.4955 12.25 8.456V4.25C12.25 4.135 12.202 4.02925 12.106 3.93275C12.0095 3.83675 11.9038 3.78875 11.7888 3.78875H10V5.46125H4V3.78875H2.21125C2.09625 3.78875 1.9905 3.83675 1.894 3.93275C1.798 4.02925 1.75 4.135 1.75 4.25V13.8275C1.75 13.962 1.79325 14.0725 1.87975 14.159C1.96625 14.2455 2.07675 14.2888 2.21125 14.2888H6.8065C6.8465 14.4288 6.89375 14.559 6.94825 14.6795C7.00325 14.7995 7.07325 14.9193 7.15825 15.0388H2.212H2.21125ZM7 3.96125C7.174 3.96125 7.3185 3.904 7.4335 3.7895C7.5485 3.6745 7.606 3.53 7.606 3.356C7.606 3.182 7.5485 3.0375 7.4335 2.9225C7.3185 2.8075 7.174 2.75 7 2.75C6.826 2.75 6.6815 2.8075 6.5665 2.9225C6.4515 3.0375 6.394 3.182 6.394 3.356C6.394 3.53 6.4515 3.6745 6.5665 3.7895C6.6815 3.9045 6.826 3.96125 7 3.96125Z" fill="#333333"/>
</svg>
