<svg width="24" height="24" viewBox="0 0 24 24" fill="none" xmlns="http://www.w3.org/2000/svg">
<path d="M18.4395 4.4395C18.3004 4.29956 18.1349 4.18864 17.9526 4.11319C17.7703 4.03774 17.5748 3.99927 17.3775 4H12V1H10.5V4H4.5C4.1023 4.0004 3.721 4.15856 3.43978 4.43978C3.15856 4.721 3.0004 5.1023 3 5.5V10C3.0004 10.3977 3.15856 10.779 3.43978 11.0602C3.721 11.3414 4.1023 11.4996 4.5 11.5H10.5V22H12V11.5H17.3782C17.5754 11.5006 17.7708 11.4621 17.9529 11.3867C18.1351 11.3112 18.3005 11.2004 18.4395 11.0605L21.75 7.75L18.4395 4.4395ZM17.3775 10H4.5V5.5H17.379L19.629 7.75L17.3775 10Z" fill="#333333"/>
</svg>
