<svg width="24" height="24" viewBox="0 0 24 24" fill="none" xmlns="http://www.w3.org/2000/svg">
<g clip-path="url(#clip0_882_6)">
<path d="M24 12C24 12.1736 23.9357 12.3401 23.8213 12.4628C23.7069 12.5856 23.5517 12.6545 23.3898 12.6545H21.5197C21.3702 13.8611 20.8176 14.9684 19.9646 15.7709C19.1115 16.5735 18.016 17.0166 16.8814 17.0182H12.6102V20.0727H15.2542C16.0634 20.0727 16.8394 20.4175 17.4115 21.0313C17.9837 21.645 18.3051 22.4775 18.3051 23.3455C18.3051 23.5191 18.2408 23.6855 18.1264 23.8083C18.0119 23.931 17.8567 24 17.6949 24C17.5331 24 17.3779 23.931 17.2635 23.8083C17.149 23.6855 17.0847 23.5191 17.0847 23.3455C17.0847 22.8247 16.8919 22.3252 16.5486 21.957C16.2053 21.5887 15.7397 21.3818 15.2542 21.3818H12.6102V23.3455C12.6102 23.5191 12.5459 23.6855 12.4315 23.8083C12.317 23.931 12.1618 24 12 24C11.8382 24 11.683 23.931 11.5685 23.8083C11.4541 23.6855 11.3898 23.5191 11.3898 23.3455V21.3818H8.74576C8.26028 21.3818 7.79468 21.5887 7.4514 21.957C7.10811 22.3252 6.91525 22.8247 6.91525 23.3455C6.91525 23.5191 6.85097 23.6855 6.73654 23.8083C6.62211 23.931 6.46691 24 6.30508 24C6.14326 24 5.98806 23.931 5.87363 23.8083C5.7592 23.6855 5.69492 23.5191 5.69492 23.3455C5.69492 22.4775 6.01634 21.645 6.58849 21.0313C7.16063 20.4175 7.93663 20.0727 8.74576 20.0727H11.3898V17.0182H7.11864C5.98403 17.0166 4.88848 16.5735 4.03544 15.7709C3.1824 14.9684 2.62983 13.8611 2.48034 12.6545H0.610169C0.448342 12.6545 0.293143 12.5856 0.178715 12.4628C0.0642855 12.3401 0 12.1736 0 12C0 11.8264 0.0642855 11.6599 0.178715 11.5372C0.293143 11.4144 0.448342 11.3455 0.610169 11.3455H3.05085C3.21267 11.3455 3.36787 11.4144 3.4823 11.5372C3.59673 11.6599 3.66102 11.8264 3.66102 12C3.66102 12.9837 4.0253 13.9271 4.67373 14.6227C5.32216 15.3183 6.20162 15.7091 7.11864 15.7091H16.8814C17.7984 15.7091 18.6778 15.3183 19.3263 14.6227C19.9747 13.9271 20.339 12.9837 20.339 12C20.339 11.8264 20.4033 11.6599 20.5177 11.5372C20.6321 11.4144 20.7873 11.3455 20.9492 11.3455H23.3898C23.5517 11.3455 23.7069 11.4144 23.8213 11.5372C23.9357 11.6599 24 11.8264 24 12ZM6.04373 13.0004C5.90971 12.8349 5.81047 12.6404 5.75274 12.4302C5.69501 12.2199 5.68014 11.9988 5.70915 11.7818L7.10441 1.30909C7.15472 0.946194 7.32455 0.614635 7.58311 0.374485C7.84168 0.134336 8.17189 0.00148407 8.5139 0H15.4861C15.8281 0.00148407 16.1583 0.134336 16.4169 0.374485C16.6755 0.614635 16.8453 0.946194 16.8956 1.30909L18.2908 11.7818C18.32 11.9986 18.3054 12.2196 18.2479 12.4298C18.1905 12.64 18.0915 12.8344 17.9578 13C17.8241 13.1655 17.6588 13.2983 17.4731 13.3893C17.2873 13.4803 17.0855 13.5273 16.8814 13.5273H7.11864C6.91475 13.5271 6.71326 13.48 6.52781 13.3891C6.34236 13.2982 6.17728 13.1656 6.04373 13.0004ZM6.96508 12.1429C6.98416 12.1665 7.00775 12.1855 7.03424 12.1984C7.06073 12.2114 7.08952 12.2182 7.11864 12.2182H16.8814C16.9105 12.2182 16.9393 12.2114 16.9658 12.1984C16.9923 12.1855 17.0158 12.1665 17.0349 12.1429C17.054 12.1193 17.0681 12.0917 17.0764 12.0617C17.0846 12.0318 17.0868 12.0004 17.0827 11.9695L15.6875 1.49673C15.6805 1.4443 15.6561 1.39636 15.6187 1.36184C15.5813 1.32732 15.5334 1.30857 15.4841 1.30909H8.5139C8.46454 1.30857 8.4167 1.32732 8.37928 1.36184C8.34186 1.39636 8.31742 1.4443 8.31051 1.49673L6.91525 11.9695C6.91147 12.0005 6.91396 12.0321 6.92256 12.062C6.93116 12.0919 6.94566 12.1195 6.96508 12.1429Z" fill="#333333"/>
</g>
<defs>
<clipPath id="clip0_882_6">
<rect width="24" height="24" fill="white"/>
</clipPath>
</defs>
</svg>
