<svg width="24" height="24" viewBox="0 0 24 24" fill="none" xmlns="http://www.w3.org/2000/svg">
<path d="M11.5 7L6 9.68246L11.5 13.259L14.1196 11.5555L11.6621 10.5784C11.6115 10.6099 11.5561 10.6264 11.5 10.6265C11.4001 10.6265 11.3042 10.5749 11.2335 10.483C11.1629 10.3911 11.1231 10.2664 11.1231 10.1364C11.1231 10.0064 11.1629 9.88178 11.2335 9.78987C11.3042 9.69795 11.4001 9.64631 11.5 9.64631L11.4377 9.90981L11.8743 10.0845L11.8745 10.0862L12.5187 10.3425L16.1871 11.8103V12.1824C16.1363 12.2273 16.0948 12.2876 16.0661 12.3581C16.0373 12.4286 16.0223 12.5072 16.0222 12.587C16.0223 12.6687 16.038 12.749 16.068 12.8207C16.098 12.8924 16.1413 12.9533 16.194 12.9977C16.0224 13.8408 16.0222 15.7539 16.0222 16.5079C16.3991 16.8263 16.3991 16.838 16.7759 16.5079C16.7759 15.7539 16.7757 13.8413 16.6042 12.998C16.6569 12.9535 16.7002 12.8926 16.7302 12.8208C16.7602 12.7491 16.7759 12.6687 16.7759 12.587C16.7759 12.5071 16.7609 12.4284 16.7321 12.3578C16.7034 12.2872 16.6618 12.2268 16.611 12.1818V11.4032L15.2138 10.844L17 9.68246L11.5 7ZM8.28789 11.8825L7.9788 14.2944C8.5953 14.3993 9.33278 14.8653 10.0107 15.4164C10.3963 15.7298 10.7574 16.0739 11.0507 16.4077C11.23 16.6117 11.3799 16.8074 11.5 17C11.6201 16.8074 11.77 16.6117 11.9493 16.4077C12.2426 16.0739 12.6037 15.7298 12.9893 15.4164C13.6672 14.8653 14.4047 14.3993 15.0212 14.2944L14.7121 11.8825H14.5649L11.5 13.8755L8.43509 11.8825H8.28789Z" fill="#333333"/>
</svg>
