<svg width="19" height="18" viewBox="0 0 19 18" fill="none" xmlns="http://www.w3.org/2000/svg">
<path d="M5.5 2.07026C6.6767 1.38958 8.04288 1 9.5 1C13.9182 1 17.5 4.58172 17.5 9C17.5 13.4182 13.9182 17 9.5 17C5.08172 17 1.5 13.4182 1.5 9C1.5 7.54288 1.88958 6.1767 2.57026 5" stroke="#154C65" stroke-width="1.5" stroke-linecap="round"/>
<path d="M9.5 17H17.5" stroke="#154C65" stroke-width="1.5" stroke-linecap="round"/>
<path d="M10.3891 5.44455C10.3891 5.93547 9.99112 6.33344 9.50022 6.33344C9.00931 6.33344 8.61133 5.93547 8.61133 5.44455C8.61133 4.95363 9.00931 4.55566 9.50022 4.55566C9.99112 4.55566 10.3891 4.95363 10.3891 5.44455Z" stroke="#154C65"/>
<path d="M10.3891 12.5559C10.3891 13.0468 9.99112 13.4448 9.50022 13.4448C9.00931 13.4448 8.61133 13.0468 8.61133 12.5559C8.61133 12.065 9.00931 11.667 9.50022 11.667C9.99112 11.667 10.3891 12.065 10.3891 12.5559Z" stroke="#154C65"/>
<path d="M5.94455 8.11133C6.43547 8.11133 6.83344 8.50931 6.83344 9.00022C6.83344 9.49112 6.43547 9.88911 5.94455 9.88911C5.45363 9.88911 5.05566 9.49112 5.05566 9.00022C5.05566 8.50931 5.45363 8.11133 5.94455 8.11133Z" stroke="#154C65"/>
<path d="M13.0559 8.11133C13.5468 8.11133 13.9448 8.50931 13.9448 9.00022C13.9448 9.49112 13.5468 9.88911 13.0559 9.88911C12.565 9.88911 12.167 9.49112 12.167 9.00022C12.167 8.50931 12.565 8.11133 13.0559 8.11133Z" stroke="#154C65"/>
</svg>
