<svg width="27" height="24" viewBox="0 0 27 24" fill="none" xmlns="http://www.w3.org/2000/svg">
<path d="M14.1427 7.14286C15.5629 7.14286 16.7141 5.99159 16.7141 4.57143C16.7141 3.15127 15.5629 2 14.1427 2C12.7226 2 11.5713 3.15127 11.5713 4.57143C11.5713 5.99159 12.7226 7.14286 14.1427 7.14286Z" stroke="#0B3243" stroke-width="1.71429" stroke-linecap="round" stroke-linejoin="round"/>
<path d="M5.57143 22.5716C6.99159 22.5716 8.14286 21.4203 8.14286 20.0001C8.14286 18.58 6.99159 17.4287 5.57143 17.4287C4.15127 17.4287 3 18.58 3 20.0001C3 21.4203 4.15127 22.5716 5.57143 22.5716Z" stroke="#0B3243" stroke-width="1.71429" stroke-linecap="round" stroke-linejoin="round"/>
<path d="M14.1427 22.5716C15.5629 22.5716 16.7141 21.4203 16.7141 20.0001C16.7141 18.58 15.5629 17.4287 14.1427 17.4287C12.7226 17.4287 11.5713 18.58 11.5713 20.0001C11.5713 21.4203 12.7226 22.5716 14.1427 22.5716Z" stroke="#0B3243" stroke-width="1.71429" stroke-linecap="round" stroke-linejoin="round"/>
<path d="M22.714 22.5716C24.1342 22.5716 25.2854 21.4203 25.2854 20.0001C25.2854 18.58 24.1342 17.4287 22.714 17.4287C21.2938 17.4287 20.1426 18.58 20.1426 20.0001C20.1426 21.4203 21.2938 22.5716 22.714 22.5716Z" stroke="#0B3243" stroke-width="1.71429" stroke-linecap="round" stroke-linejoin="round"/>
<path d="M5.57129 17.4283V13.9997C5.57129 13.5451 5.7519 13.109 6.07339 12.7875C6.39488 12.466 6.83092 12.2854 7.28557 12.2854H20.9999C21.4545 12.2854 21.8906 12.466 22.212 12.7875C22.5335 13.109 22.7141 13.5451 22.7141 13.9997V17.4283M14.1427 7.14258V17.4283" stroke="#0B3243" stroke-width="1.71429" stroke-linecap="round" stroke-linejoin="round"/>
</svg>
