<svg xmlns="http://www.w3.org/2000/svg" width="20" height="20" viewBox="0 0 20 20" fill="none">
  <path d="M18.3327 9.16732C18.3243 6.57232 18.2427 5.19648 17.356 4.31065C16.3802 3.33398 14.8085 3.33398 11.666 3.33398H8.33268C5.19018 3.33398 3.61852 3.33398 2.64268 4.31065C1.66602 5.28648 1.66602 6.85815 1.66602 10.0007C1.66602 13.1432 1.66602 14.7148 2.64268 15.6906C3.61852 16.6673 5.19018 16.6673 8.33268 16.6673H9.58268" stroke="#876AFE" stroke-width="1.5" stroke-linecap="round"/>
  <path d="M12.9167 11.668V16.668M12.9167 16.668L14.5833 15.0013M12.9167 16.668L11.25 15.0013M16.6667 16.668V11.668M16.6667 11.668L18.3333 13.3346M16.6667 11.668L15 13.3346" stroke="#876AFE" stroke-width="1.5" stroke-linecap="round" stroke-linejoin="round"/>
  <path d="M8.33268 13.334H4.99935M1.66602 8.33398H18.3327" stroke="#876AFE" stroke-width="1.5" stroke-linecap="round"/>
</svg>