<svg xmlns="http://www.w3.org/2000/svg" width="16" height="16" viewBox="0 0 16 16" fill="none">
  <g clip-path="url(#clip0_1965_3047)">
    <path d="M0 12.666C0.00105857 13.5497 0.352588 14.397 0.97748 15.0219C1.60237 15.6468 2.4496 15.9983 3.33333 15.9993H12.6667C13.5504 15.9983 14.3976 15.6468 15.0225 15.0219C15.6474 14.397 15.9989 13.5497 16 12.666V6.66602H0V12.666ZM11.3333 9.66602C11.5311 9.66602 11.7245 9.72466 11.8889 9.83455C12.0534 9.94443 12.1815 10.1006 12.2572 10.2833C12.3329 10.4661 12.3527 10.6671 12.3141 10.8611C12.2755 11.0551 12.1803 11.2333 12.0404 11.3731C11.9006 11.513 11.7224 11.6082 11.5284 11.6468C11.3344 11.6854 11.1334 11.6656 10.9507 11.5899C10.7679 11.5142 10.6117 11.386 10.5019 11.2216C10.392 11.0571 10.3333 10.8638 10.3333 10.666C10.3333 10.4008 10.4387 10.1464 10.6262 9.95891C10.8138 9.77137 11.0681 9.66602 11.3333 9.66602ZM8 9.66602C8.19778 9.66602 8.39112 9.72466 8.55557 9.83455C8.72002 9.94443 8.84819 10.1006 8.92388 10.2833C8.99957 10.4661 9.01937 10.6671 8.98079 10.8611C8.9422 11.0551 8.84696 11.2333 8.70711 11.3731C8.56726 11.513 8.38907 11.6082 8.19509 11.6468C8.00111 11.6854 7.80004 11.6656 7.61732 11.5899C7.43459 11.5142 7.27841 11.386 7.16853 11.2216C7.05865 11.0571 7 10.8638 7 10.666C7 10.4008 7.10536 10.1464 7.29289 9.95891C7.48043 9.77137 7.73478 9.66602 8 9.66602ZM4.66667 9.66602C4.86445 9.66602 5.05779 9.72466 5.22224 9.83455C5.38669 9.94443 5.51486 10.1006 5.59055 10.2833C5.66623 10.4661 5.68604 10.6671 5.64745 10.8611C5.60887 11.0551 5.51363 11.2333 5.37377 11.3731C5.23392 11.513 5.05574 11.6082 4.86176 11.6468C4.66778 11.6854 4.46671 11.6656 4.28398 11.5899C4.10126 11.5142 3.94508 11.386 3.8352 11.2216C3.72532 11.0571 3.66667 10.8638 3.66667 10.666C3.66667 10.4008 3.77202 10.1464 3.95956 9.95891C4.1471 9.77137 4.40145 9.66602 4.66667 9.66602Z" fill="#858D9D"/>
    <path d="M12.6667 1.33333H12V0.666667C12 0.489856 11.9298 0.320286 11.8047 0.195262C11.6797 0.0702379 11.5101 0 11.3333 0C11.1565 0 10.987 0.0702379 10.8619 0.195262C10.7369 0.320286 10.6667 0.489856 10.6667 0.666667V1.33333H5.33333V0.666667C5.33333 0.489856 5.2631 0.320286 5.13807 0.195262C5.01305 0.0702379 4.84348 0 4.66667 0C4.48986 0 4.32029 0.0702379 4.19526 0.195262C4.07024 0.320286 4 0.489856 4 0.666667V1.33333H3.33333C2.4496 1.33439 1.60237 1.68592 0.97748 2.31081C0.352588 2.93571 0.00105857 3.78294 0 4.66667L0 5.33333H16V4.66667C15.9989 3.78294 15.6474 2.93571 15.0225 2.31081C14.3976 1.68592 13.5504 1.33439 12.6667 1.33333Z" fill="#858D9D"/>
  </g>
  <defs>
    <clipPath id="clip0_1965_3047">
      <rect width="16" height="16" fill="white"/>
    </clipPath>
  </defs>
</svg>