<svg width="16" height="16" viewBox="0 0 16 16" fill="none" xmlns="http://www.w3.org/2000/svg">
<g clip-path="url(#clip0_1913_2471)">
<path d="M6.58613 12.0813C7.36695 12.8627 8.63326 12.8631 9.41457 12.0822C9.41488 12.0819 9.41516 12.0817 9.41548 12.0813L11.5561 9.94069C11.8031 9.66759 11.7819 9.246 11.5088 8.99906C11.2545 8.76916 10.8673 8.76956 10.6135 9L8.66282 10.9513L8.66748 0.666687C8.66745 0.298469 8.36898 0 8.00079 0C7.6326 0 7.33413 0.298469 7.33413 0.666656L7.32813 10.9387L5.38813 9C5.12763 8.73969 4.70545 8.73984 4.44513 9.00034C4.18482 9.26084 4.18498 9.68303 4.44548 9.94334L6.58613 12.0813Z" fill="white"/>
<path d="M15.3333 10.667C14.9652 10.667 14.6667 10.9655 14.6667 11.3336V14.0003C14.6667 14.3685 14.3682 14.667 14 14.667H2C1.63181 14.667 1.33334 14.3685 1.33334 14.0003V11.3337C1.33334 10.9655 1.03487 10.667 0.666687 10.667C0.298469 10.667 0 10.9655 0 11.3337V14.0003C0 15.1049 0.895437 16.0003 2 16.0003H14C15.1046 16.0003 16 15.1049 16 14.0003V11.3337C16 10.9655 15.7015 10.667 15.3333 10.667Z" fill="white"/>
</g>
<defs>
<clipPath id="clip0_1913_2471">
<rect width="16" height="16" fill="white"/>
</clipPath>
</defs>
</svg>
