<svg width="32" height="32" viewBox="0 0 32 32" fill="none" xmlns="http://www.w3.org/2000/svg">
<path fill-rule="evenodd" clip-rule="evenodd" d="M10.667 5.33333C10.667 4.59733 11.2177 4 11.8977 4H20.103C20.783 4 21.3337 4.59733 21.3337 5.33333C21.3337 6.06933 20.783 6.66667 20.103 6.66667H11.8977C11.2177 6.66667 10.667 6.06933 10.667 5.33333ZM13.0377 28H18.963C23.1243 28 25.2057 28 26.7003 27.0373C27.3434 26.6239 27.8988 26.0879 28.335 25.46C29.3337 24.02 29.3337 22.0133 29.3337 18C29.3337 13.9867 29.3337 11.9813 28.3337 10.54C27.898 9.91215 27.343 9.37619 26.7003 8.96267C25.2057 8 23.1243 8 18.963 8H13.0377C8.87633 8 6.79499 8 5.30033 8.96267C4.65769 9.37622 4.1027 9.91218 3.66699 10.54C2.66699 11.98 2.66699 13.9867 2.66699 17.9973V18C2.66699 22.0133 2.66699 24.0187 3.66566 25.46C4.09766 26.084 4.65233 26.62 5.30033 27.0373C6.79499 28 8.87633 28 13.0377 28ZM10.4443 18C10.4443 15.04 12.9323 12.6427 16.0003 12.6427C19.0683 12.6427 21.5563 15.0413 21.5563 18C21.5563 20.9587 19.067 23.3573 16.0003 23.3573C12.9323 23.3573 10.4443 20.9573 10.4443 18ZM12.667 18C12.667 16.224 14.1603 14.7867 16.0003 14.7867C17.8403 14.7867 19.3337 16.2253 19.3337 18C19.3337 19.7747 17.8403 21.2133 16.0003 21.2133C14.1603 21.2133 12.667 19.7747 12.667 18ZM24.1483 12.6427C23.535 12.6427 23.0377 13.1227 23.0377 13.7147C23.0377 14.3053 23.535 14.7853 24.1483 14.7853H24.8897C25.503 14.7853 26.0003 14.3053 26.0003 13.7147C26.0003 13.1227 25.503 12.6427 24.8897 12.6427H24.1483Z" fill="#242760" fill-opacity="0.81"/>
</svg>
