<svg width="24" height="24" viewBox="0 0 24 24" fill="none" xmlns="http://www.w3.org/2000/svg">
<path fill-rule="evenodd" clip-rule="evenodd" d="M21.75 0H2.25C1.0125 0 0 1.0125 0 2.25V21.75C0 22.9875 1.0125 24 2.25 24H21.75C22.9875 24 24 22.9875 24 21.75V2.25C24 1.0125 22.9875 0 21.75 0ZM12 20.644C7.23285 20.644 3.35599 16.7676 3.35599 12C3.35599 7.23244 7.23199 3.35599 12 3.35599C16.7672 3.35599 20.644 7.23199 20.644 12C20.644 16.768 16.7676 20.644 12 20.644ZM19.29 13.1821C19.0376 13.1015 17.0032 12.4974 14.6912 12.8677C15.6572 15.5212 16.0483 17.6827 16.1262 18.1322C17.7806 17.0121 18.9627 15.2382 19.29 13.1821ZM14.8843 18.8077C14.7727 18.1588 14.3466 15.903 13.311 13.2092C13.2938 13.2158 13.2774 13.2194 13.2632 13.2264C9.09754 14.6784 7.60046 17.5658 7.46981 17.8359C8.72239 18.8117 10.2965 19.3963 12.0013 19.3963C13.0249 19.3963 14.0007 19.1864 14.8856 18.8086L14.8843 18.8077ZM6.51311 16.9466C6.68186 16.6591 8.70776 13.3066 12.5129 12.0744C12.6081 12.0448 12.7051 12.0142 12.8039 11.9872C12.6179 11.5682 12.4159 11.147 12.206 10.7351C8.52308 11.8388 4.94295 11.7914 4.61918 11.7883C4.61561 11.8627 4.61561 11.9376 4.61561 12.0142C4.61561 13.9081 5.33494 15.6404 6.51311 16.9479V16.9466ZM4.77424 10.4976C5.10506 10.5007 8.14793 10.514 11.6022 9.59895C10.3807 7.42421 9.05989 5.59496 8.86414 5.32834C6.79703 6.30364 5.25079 8.20864 4.7751 10.4976H4.7742L4.77424 10.4976ZM10.2717 4.83221C10.4746 5.10506 11.8175 6.93296 13.0267 9.1542C15.6532 8.17181 16.764 6.67478 16.896 6.48608C15.5929 5.3283 13.8775 4.62536 12.0004 4.62536C11.4182 4.62823 10.8383 4.69733 10.2717 4.83131V4.83221H10.2717ZM17.7172 7.34404C17.5613 7.55351 16.3215 9.14141 13.5936 10.2549C13.765 10.6061 13.9311 10.964 14.0831 11.3259C14.1371 11.4543 14.1911 11.5788 14.2421 11.7068C16.6998 11.4007 19.1412 11.8932 19.3844 11.9433C19.3675 10.2017 18.7426 8.60055 17.7163 7.34449L17.7172 7.34404H17.7172Z" fill="black"/>
</svg>
