<svg width="24" height="24" viewBox="0 0 24 24" fill="none" xmlns="http://www.w3.org/2000/svg">
<path d="M24 12C24 5.37242 18.6276 0 12 0C5.37242 0 0 5.37242 0 12C0 17.628 3.87442 22.3497 9.10114 23.6468V15.667H6.62664V12H9.10114V10.42C9.10114 6.33525 10.9495 4.44212 14.9592 4.44212C15.7198 4.44212 17.0315 4.59159 17.5681 4.74059V8.06475C17.2847 8.03505 16.7929 8.01996 16.1818 8.01996C14.2142 8.01996 13.4537 8.76542 13.4537 10.7033V12H17.3734L16.7 15.667H13.4537V23.9123C19.3957 23.1947 24 18.1353 24 12Z" fill="black"/>
</svg>
