<svg width="24" height="24" viewBox="0 0 24 24" fill="none" xmlns="http://www.w3.org/2000/svg">
<path fill-rule="evenodd" clip-rule="evenodd" d="M11.9993 0.00404993C5.37339 0.00404993 0 5.37654 0 12.0033C0 17.3054 3.43786 21.8018 8.20582 23.3892C8.80596 23.5004 9.02653 23.1284 9.02653 22.8112C9.02653 22.5251 9.01457 21.5799 9.00969 20.5781C5.67106 21.304 4.96727 19.1617 4.96727 19.1617C4.42158 17.7744 3.63496 17.4055 3.63496 17.4055C2.54628 16.6601 3.71779 16.6765 3.71779 16.6765C4.92249 16.7606 5.55676 17.9122 5.55676 17.9122C6.62774 19.7468 8.36482 19.2157 9.0491 18.9096C9.15718 18.1341 9.46722 17.6044 9.8109 17.3045C7.14545 17.002 4.34362 15.9727 4.34362 11.3744C4.34362 10.0647 4.81311 8.99376 5.57978 8.15396C5.45491 7.85104 5.04388 6.63126 5.69539 4.97874C5.69539 4.97874 6.703 4.65587 8.99642 6.20872C9.9531 5.94341 10.9793 5.80965 11.9985 5.80523C13.0184 5.80965 14.0464 5.94296 15.0045 6.20872C17.2948 4.65677 18.3015 4.97874 18.3015 4.97874C18.9539 6.63171 18.5447 7.85235 18.4198 8.154C19.1891 8.99376 19.6546 10.0647 19.6546 11.3744C19.6546 15.9833 16.8466 16.9967 14.1753 17.2939C14.6059 17.6659 14.9903 18.3963 14.9903 19.5151C14.9903 21.1198 14.9766 22.413 14.9766 22.8077C14.9766 23.127 15.1927 23.5004 15.8013 23.3834C20.5665 21.7952 24 17.2983 24 11.9993C24 5.37339 18.6275 0 12.0002 0L11.9994 0.00401244L11.9993 0.00404993Z" fill="black"/>
</svg>
