<svg width="24" height="24" viewBox="0 0 24 24" fill="none" xmlns="http://www.w3.org/2000/svg">
<path d="M7.99981 12.0074C7.99592 9.79858 9.78364 8.00425 11.992 8.00041C14.2008 7.9961 15.9955 9.78302 15.9998 11.9922C16.004 14.2015 14.2163 15.9954 12.0072 15.9997C9.79878 16.0039 8.00408 14.2166 7.99981 12.0074ZM5.8385 12.0117C5.84511 15.4149 8.60909 18.1676 12.0115 18.161C15.4142 18.1544 18.1685 15.3912 18.1619 11.988C18.1553 8.58592 15.3909 5.8316 11.9877 5.83825C8.58533 5.84486 5.83189 8.60922 5.8385 12.0117ZM16.9527 5.5855C16.9543 6.38022 17.6004 7.02372 18.3952 7.02217C19.1902 7.02058 19.8337 6.37478 19.8326 5.58007C19.831 4.78535 19.1848 4.14147 18.3897 4.14307C17.5947 4.14461 16.9512 4.79078 16.9527 5.5855ZM7.17012 21.7761C6.00022 21.7252 5.36492 21.5308 4.94155 21.3679C4.38087 21.151 3.9808 20.8908 3.55972 20.4729C3.13944 20.0533 2.87853 19.6544 2.65962 19.0949C2.49519 18.6715 2.29728 18.037 2.24244 16.8671C2.18295 15.6023 2.16936 15.2228 2.16355 12.0187C2.15731 8.81533 2.16898 8.43583 2.2242 7.16988C2.27431 6.00077 2.46992 5.36463 2.63244 4.94163C2.84937 4.38021 3.10873 3.98088 3.52747 3.55985C3.94695 3.13877 4.34586 2.87866 4.90573 2.65975C5.32878 2.49447 5.96328 2.29811 7.13281 2.24257C8.39834 2.18266 8.77742 2.16986 11.9808 2.16363C15.1848 2.15739 15.5643 2.16869 16.8303 2.22428C17.9993 2.27519 18.6354 2.46883 19.0581 2.63252C19.6191 2.84946 20.0192 3.10807 20.4399 3.52755C20.8605 3.94708 21.1214 4.34519 21.3403 4.90628C21.5055 5.32811 21.7019 5.96341 21.7572 7.13257C21.8174 8.3981 21.831 8.7776 21.8368 11.9809C21.843 15.1851 21.8314 15.5646 21.7758 16.8298C21.7249 17.9996 21.5308 18.6354 21.3676 19.0592C21.1506 19.6195 20.8913 20.0195 20.4721 20.4406C20.053 20.8601 19.6541 21.1218 19.0939 21.3407C18.6716 21.5055 18.0363 21.7023 16.8676 21.7578C15.602 21.8173 15.2229 21.831 12.0185 21.8368C8.81511 21.843 8.43608 21.831 7.17012 21.7761ZM7.03016 0.0831282C5.75333 0.143409 4.88126 0.347878 4.11917 0.646519C3.33031 0.954066 2.66159 1.36619 1.99639 2.03416C1.33034 2.7025 0.921312 3.37239 0.616108 4.16205C0.320655 4.92607 0.120405 5.79855 0.0640147 7.07617C0.00804595 8.35614 -0.00479781 8.76438 0.00143657 12.0229C0.00767094 15.2811 0.0220147 15.6902 0.0830459 16.9705C0.144077 18.247 0.347843 19.1186 0.646437 19.8811C0.954358 20.67 1.36611 21.3384 2.03445 22.004C2.70242 22.6696 3.37273 23.0783 4.16276 23.3839C4.92598 23.6789 5.7988 23.88 7.07605 23.9359C8.35597 23.9923 8.76458 24.0048 12.0223 23.9986C15.2817 23.9923 15.6903 23.9779 16.9702 23.9173C18.2471 23.8563 19.1183 23.6518 19.8812 23.3539C20.67 23.0452 21.3387 22.6342 22.004 21.9659C22.6692 21.2979 23.0783 20.6276 23.3835 19.8376C23.679 19.0743 23.88 18.2014 23.9355 16.925C23.9915 15.6443 24.0048 15.2352 23.9985 11.977C23.9923 8.71849 23.9776 8.31025 23.9169 7.03071C23.8563 5.75308 23.6517 4.88177 23.3535 4.11892C23.0452 3.33007 22.6339 2.66205 21.9659 1.99605C21.298 1.3308 20.6277 0.920972 19.8376 0.616566C19.074 0.321066 18.2015 0.119691 16.9243 0.0644719C15.6444 0.00770631 15.2358 -0.00471557 11.9768 0.00147193C8.71869 0.0077063 8.31008 0.0216751 7.03016 0.0831282Z" fill="black"/>
</svg>
