<svg width="24" height="24" viewBox="0 0 24 24" fill="none" xmlns="http://www.w3.org/2000/svg">
<path fill-rule="evenodd" clip-rule="evenodd" d="M21.75 0H2.25C1.0125 0 0 1.0125 0 2.25V21.75C0 22.9875 1.0125 24 2.25 24H21.75C22.9875 24 24 22.9875 24 21.75V2.25C24 1.0125 22.9875 0 21.75 0ZM19.5021 7.34756C18.9415 7.59677 18.3462 7.75926 17.7367 7.82944C18.371 7.45121 18.8577 6.84619 19.0902 6.12645C18.4954 6.47858 17.835 6.73721 17.137 6.87495C16.5727 6.27795 15.7741 5.90633 14.8892 5.90633C13.1892 5.90633 11.8127 7.28201 11.8127 8.98193C11.8127 9.22024 11.8383 9.4554 11.891 9.6822C9.33405 9.55155 7.06676 8.32732 5.54798 6.46526C5.27482 6.93496 5.13087 7.4686 5.13075 8.01195C5.13075 9.07939 5.67289 10.0228 6.49894 10.5716C5.994 10.557 5.52139 10.4175 5.10371 10.1889V10.2279C5.10371 11.7188 6.16496 12.9642 7.57346 13.2459C7.30908 13.3175 7.03637 13.3539 6.76245 13.354C6.56404 13.354 6.37226 13.3345 6.18225 13.2986C6.57424 14.5206 7.70899 15.4118 9.05632 15.4361C8.0013 16.2626 6.67609 16.7547 5.23305 16.7547C4.98368 16.7547 4.74053 16.7401 4.49783 16.7118C5.86245 17.5878 7.47998 18.0936 9.21803 18.0936C14.8781 18.0936 17.9745 13.404 17.9745 9.33761C17.9745 9.2025 17.9723 9.07054 17.9657 8.93809C18.5667 8.50845 19.0894 7.96545 19.5004 7.34891L19.5021 7.34756Z" fill="black"/>
</svg>
