<svg width="24" height="18" viewBox="0 0 24 18" fill="none" xmlns="http://www.w3.org/2000/svg">
<path fill-rule="evenodd" clip-rule="evenodd" d="M23.755 4.20142C23.755 4.20142 23.5207 2.54711 22.7996 1.82074C21.8859 0.865348 20.8628 0.859161 20.395 0.803811C17.039 0.559311 11.9986 0.559311 11.9986 0.559311H11.9898C11.9898 0.559311 6.95156 0.559311 3.59377 0.803811C3.12427 0.860923 2.10247 0.864936 1.18916 1.82074C0.467662 2.54711 0.238237 4.20142 0.238237 4.20142C0.238237 4.20142 -0.000488281 6.14272 -0.000488281 8.08804V9.90712C-0.000488281 11.8484 0.238237 13.7937 0.238237 13.7937C0.238237 13.7937 0.472537 15.448 1.18916 16.1757C2.10247 17.1311 3.30277 17.1001 3.83872 17.202C5.76011 17.3854 12.0004 17.4407 12.0004 17.4407C12.0004 17.4407 17.0452 17.4318 20.4012 17.1918C20.8707 17.1364 21.8921 17.1307 22.8058 16.1748C23.5273 15.4485 23.7612 13.7924 23.7612 13.7924C23.7612 13.7924 24 11.8511 24 9.90577V8.08672C23.9951 6.14539 23.7563 4.20011 23.7563 4.20011L23.755 4.20142ZM9.51251 12.1142V5.36899L15.996 8.75287L9.51251 12.1142Z" fill="black"/>
</svg>
