<svg width="10" height="16" viewBox="0 0 10 16" fill="none" xmlns="http://www.w3.org/2000/svg">
<path d="M1.8 2.3998C2.24183 2.3998 2.6 2.04163 2.6 1.5998C2.6 1.15798 2.24183 0.799805 1.8 0.799805C1.35817 0.799805 1 1.15798 1 1.5998C1 2.04163 1.35817 2.3998 1.8 2.3998Z" stroke="black" stroke-linecap="round" stroke-linejoin="round"/>
<path d="M8.20002 2.3998C8.64185 2.3998 9.00002 2.04163 9.00002 1.5998C9.00002 1.15798 8.64185 0.799805 8.20002 0.799805C7.7582 0.799805 7.40002 1.15798 7.40002 1.5998C7.40002 2.04163 7.7582 2.3998 8.20002 2.3998Z" stroke="black" stroke-linecap="round" stroke-linejoin="round"/>
<path d="M1.8 8.79971C2.24183 8.79971 2.6 8.44153 2.6 7.99971C2.6 7.55788 2.24183 7.19971 1.8 7.19971C1.35817 7.19971 1 7.55788 1 7.99971C1 8.44153 1.35817 8.79971 1.8 8.79971Z" stroke="black" stroke-linecap="round" stroke-linejoin="round"/>
<path d="M8.20002 8.79971C8.64185 8.79971 9.00002 8.44153 9.00002 7.99971C9.00002 7.55788 8.64185 7.19971 8.20002 7.19971C7.7582 7.19971 7.40002 7.55788 7.40002 7.99971C7.40002 8.44153 7.7582 8.79971 8.20002 8.79971Z" stroke="black" stroke-linecap="round" stroke-linejoin="round"/>
<path d="M1.8 15.1996C2.24183 15.1996 2.6 14.8414 2.6 14.3996C2.6 13.9578 2.24183 13.5996 1.8 13.5996C1.35817 13.5996 1 13.9578 1 14.3996C1 14.8414 1.35817 15.1996 1.8 15.1996Z" stroke="black" stroke-linecap="round" stroke-linejoin="round"/>
<path d="M8.20002 15.1996C8.64185 15.1996 9.00002 14.8414 9.00002 14.3996C9.00002 13.9578 8.64185 13.5996 8.20002 13.5996C7.7582 13.5996 7.40002 13.9578 7.40002 14.3996C7.40002 14.8414 7.7582 15.1996 8.20002 15.1996Z" stroke="black" stroke-linecap="round" stroke-linejoin="round"/>
</svg>
