<svg width="22" height="24" viewBox="0 0 22 24" fill="none" xmlns="http://www.w3.org/2000/svg">
<path d="M4.37109 16.1136C4.37109 16.3864 4.45237 16.648 4.59704 16.8409C4.74171 17.0338 4.93793 17.1422 5.14252 17.1422C5.34712 17.1422 5.54333 17.0338 5.688 16.8409C5.83268 16.648 5.91395 16.3864 5.91395 16.1136V7.88502C5.91395 7.61222 5.83268 7.3506 5.688 7.15771C5.54333 6.96481 5.34712 6.85645 5.14252 6.85645C4.93793 6.85645 4.74171 6.96481 4.59704 7.15771C4.45237 7.3506 4.37109 7.61222 4.37109 7.88502V16.1136Z" fill="#0B3243"/>
<path fill-rule="evenodd" clip-rule="evenodd" d="M19.7371 6.86193C19.6734 6.85644 19.6034 6.85645 19.5314 6.85645H16.6792C14.3433 6.85645 12.3438 9.23725 12.3438 12.3422C12.3438 15.4471 14.3433 17.8279 16.6792 17.8279H19.5314C19.6034 17.8279 19.6734 17.8279 19.7371 17.8224C20.6865 17.7456 21.5258 16.7842 21.5968 15.4402C21.6009 15.3524 21.6009 15.2578 21.6009 15.17V9.51427C21.6009 9.4265 21.6009 9.33187 21.5968 9.2441C21.5258 7.9001 20.6865 6.9401 19.7371 6.86193ZM16.4282 13.8055C17.0289 13.8055 17.5164 13.1499 17.5164 12.3422C17.5164 11.533 17.0289 10.8788 16.4282 10.8788C15.8265 10.8788 15.3379 11.5344 15.3379 12.3422C15.3379 13.1513 15.8265 13.8055 16.4282 13.8055Z" fill="#0B3243"/>
<path opacity="0.5" d="M19.6869 6.85989C19.6869 5.24023 19.6416 3.50263 18.8661 2.25874C18.7902 2.13689 18.7103 2.01974 18.6264 1.90766C17.856 0.881828 16.8799 0.426514 15.6744 0.209829C14.5018 1.63487e-07 13.0053 0 11.1147 0H8.9424C7.05189 0 5.55429 1.63487e-07 4.38171 0.209829C3.17623 0.426514 2.20011 0.881828 1.42971 1.90766C0.660343 2.93486 0.318857 4.23634 0.156343 5.84366C-4.59807e-08 7.40709 0 9.40251 0 11.9232V12.0768C0 14.5975 1.22615e-07 16.5943 0.157372 18.1563C0.319886 19.7637 0.661371 21.0651 1.43074 22.0923C2.20114 23.1182 3.17726 23.5735 4.38274 23.7902C5.55531 24 7.05189 24 8.9424 24H11.1147C13.0053 24 14.5029 24 15.6744 23.7902C16.8799 23.5735 17.856 23.1182 18.6264 22.0923C18.8313 21.8183 19.0128 21.5147 19.1674 21.1872C19.6303 20.1998 19.6858 18.9902 19.6858 17.8272L19.5315 17.8286H16.6783C14.3424 17.8286 12.3429 15.4478 12.3429 12.3429C12.3429 9.23794 14.3424 6.85714 16.6783 6.85714H19.5305C19.584 6.85714 19.6375 6.85714 19.6869 6.85989Z" fill="#0B3243"/>
</svg>
