<svg width="19" height="18" viewBox="0 0 19 18" fill="none" xmlns="http://www.w3.org/2000/svg">
<path d="M2.08306 3.58011C3.02477 3.58011 3.78818 2.77868 3.78818 1.79006C3.78818 0.801435 3.02477 0 2.08306 0C1.14134 0 0.37793 0.801435 0.37793 1.79006C0.37793 2.77868 1.14134 3.58011 2.08306 3.58011Z" fill="#307777"/>
<path d="M3.97734 4.65423C3.82578 4.19677 3.33318 3.93821 2.87848 4.11722C2.44273 4.27633 2.19643 4.79346 2.36695 5.27081L6.53503 17.4034C6.66765 17.7614 6.98973 18.0001 7.33076 18.0001C7.42549 18.0001 7.52021 17.9802 7.61494 17.9404C8.0507 17.7813 8.29699 17.2642 8.12648 16.7868L3.97734 4.65423Z" fill="#307777"/>
<path d="M17.7321 5.03192C16.9175 5.40982 15.5723 5.70816 13.7914 5.0717C10.7601 3.97778 12.0294 2.48606 9.47175 1.78993C7.53928 1.27281 5.73942 2.24739 4.98159 2.76452C4.75424 2.92363 4.65951 3.22198 4.75424 3.48054L6.91406 9.76562C7.02774 10.0839 7.40666 10.2032 7.63401 9.98441C7.91819 9.72585 8.37289 9.50706 9.09284 9.50706C10.7032 9.50706 11.9726 10.8397 13.4504 10.6408C15.4207 10.3822 17.5048 8.47281 18.3574 5.62861C18.471 5.21093 18.0921 4.85292 17.7321 5.03192Z" fill="#307777"/>
</svg>
