<svg width="18" height="15" viewBox="0 0 18 15" fill="none" xmlns="http://www.w3.org/2000/svg">
<path d="M14.6693 0C16.165 0 17.3776 1.21256 17.3776 2.70833V11.4605C17.3776 12.9563 16.165 14.1688 14.6693 14.1688H3.41927C1.9235 14.1688 0.710938 12.9563 0.710938 11.4605V2.70833C0.710938 1.21256 1.9235 0 3.41927 0H14.6693ZM5.7231 4.47616C4.36793 4.47616 3.42847 5.65093 3.42847 7.07813C3.42847 8.50585 4.36809 9.68311 5.7231 9.68311C6.46292 9.68311 7.14234 9.3272 7.48283 8.67151L7.54633 8.53639L7.56594 8.47833L7.58095 8.41615L7.58728 8.34699L7.58746 7.07971L7.58181 7.00275C7.54874 6.7795 7.37402 6.60242 7.15194 6.56583L7.06662 6.55888H6.23195L6.15499 6.56452C5.93174 6.59759 5.75467 6.77232 5.71807 6.99439L5.71112 7.07971L5.71677 7.15667C5.74983 7.37992 5.92456 7.557 6.14664 7.59359L6.23195 7.60054L6.54513 7.60033V8.212L6.53997 8.22414C6.38266 8.49156 6.08029 8.64145 5.7231 8.64145C5.00155 8.64145 4.47013 7.97563 4.47013 7.07813C4.47013 6.18146 5.00085 5.51783 5.7231 5.51783C6.07428 5.51783 6.27413 5.55634 6.52399 5.67633C6.78328 5.80085 7.09443 5.69159 7.21895 5.43229C7.34347 5.17299 7.23422 4.86184 6.97492 4.73732C6.57221 4.54393 6.22052 4.47616 5.7231 4.47616ZM9.56839 4.57783C9.30689 4.57783 9.09041 4.77054 9.0532 5.0217L9.04756 5.09866V9.0671L9.0532 9.14407C9.09041 9.39522 9.30689 9.58794 9.56839 9.58794C9.82989 9.58794 10.0464 9.39522 10.0836 9.14407L10.0892 9.0671V5.09866L10.0836 5.0217C10.0464 4.77054 9.82989 4.57783 9.56839 4.57783ZM13.7294 4.58358L12.0649 4.57782C11.8034 4.57693 11.5863 4.76889 11.5482 5.01992L11.5423 5.09686V9.05369L11.5479 9.13066C11.581 9.3539 11.7557 9.53098 11.9778 9.56757L12.0631 9.57452L12.1401 9.56888C12.3633 9.53581 12.5404 9.36108 12.577 9.13901L12.5839 9.05369L12.5835 8.1245L13.5193 8.12488L13.5962 8.11924C13.8195 8.08617 13.9966 7.91144 14.0332 7.68936L14.0401 7.60405L14.0345 7.52708C14.0014 7.30384 13.8267 7.12676 13.6046 7.09017L13.5193 7.08322L12.5835 7.08283V5.62033L13.7258 5.62524L13.8028 5.61986C14.0541 5.58352 14.2475 5.3677 14.2484 5.10621C14.2493 4.84471 14.0574 4.62756 13.8063 4.58949L13.7294 4.58358Z" fill="#307777"/>
</svg>
