<svg width="26" height="28" viewBox="0 0 26 28" fill="none" xmlns="http://www.w3.org/2000/svg">
<g clip-path="url(#clip0_25_398)">
<path d="M5.41667 23.3334H14.0833C17.0701 23.3334 19.5 20.7165 19.5 17.5V10.5C19.5 7.28352 17.0701 4.66669 14.0833 4.66669H5.41667C2.42992 4.66669 0 7.28352 0 10.5V17.5C0 20.7165 2.42992 23.3334 5.41667 23.3334ZM26 9.69852V18.2374C26 19.1205 25.545 19.9139 24.8116 20.3082C24.505 20.4727 24.1757 20.5544 23.8485 20.5544C23.3924 20.5544 22.9418 20.3969 22.5604 20.0889C22.5203 20.0562 21.6667 19.1439 21.6667 19.1439V8.80135C21.6667 8.80135 22.5182 7.88085 22.5604 7.84702C23.2148 7.31735 24.076 7.23219 24.8116 7.62769C25.5472 8.02319 26 8.81535 26 9.69852Z" fill="#EE2C4D"/>
<path d="M15.9104 13.6587C15.4714 12.8587 13.7499 10.25 9.99993 10.25C6.24994 10.25 4.52844 12.8587 4.08944 13.6587C4.0305 13.766 4 13.8825 4 14.0004C4 14.1183 4.0305 14.2349 4.08944 14.3421C4.52844 15.1413 6.24994 17.75 9.99993 17.75C13.7499 17.75 15.4714 15.1413 15.9104 14.3412C15.9692 14.2342 15.9997 14.1178 15.9997 14C15.9997 13.8822 15.9692 13.7658 15.9104 13.6587ZM9.99993 16.5C9.40659 16.5 8.82657 16.3534 8.33322 16.0787C7.83988 15.804 7.45536 15.4135 7.2283 14.9567C7.00123 14.4999 6.94182 13.9972 7.05758 13.5123C7.17333 13.0273 7.45906 12.5819 7.87861 12.2322C8.29817 11.8826 8.83272 11.6445 9.41466 11.548C9.99661 11.4516 10.5998 11.5011 11.148 11.6903C11.6962 11.8795 12.1647 12.2 12.4943 12.6111C12.824 13.0222 12.9999 13.5055 12.9999 14C12.9991 14.6628 12.6828 15.2983 12.1204 15.767C11.5579 16.2357 10.7953 16.4993 9.99993 16.5Z" fill="#242526"/>
<path d="M10 16C11.1046 16 12 15.1046 12 14C12 12.8954 11.1046 12 10 12C8.89543 12 8 12.8954 8 14C8 15.1046 8.89543 16 10 16Z" fill="#EE2C4D"/>
</g>
<defs>
<clipPath id="clip0_25_398">
<rect width="26" height="28" fill="white"/>
</clipPath>
</defs>
</svg>
