<svg width="27" height="28" viewBox="0 0 27 28" fill="none" xmlns="http://www.w3.org/2000/svg">
<path d="M7.88251 3.00634L5.96622 2.82083C4.77441 2.70546 3.74811 3.65601 3.77208 4.85304L4.11329 21.8958C4.13286 22.8733 4.88102 23.681 5.85431 23.7752V23.7752" stroke="#4BBC66"/>
<path d="M7.23355 22.3511L9.59086 3.85748C9.73053 2.76178 10.7321 1.98577 11.828 2.12422L23.0105 3.53703C24.1064 3.67548 24.8815 4.67596 24.7419 5.77166L22.3845 24.2653C22.2449 25.361 21.2433 26.137 20.1474 25.9986L8.96489 24.5858C7.86903 24.4473 7.09388 23.4468 7.23355 22.3511Z" stroke="#4BBC66"/>
<path d="M7.55507 16.1928L11.9633 14.0623L14.6887 17.4922" stroke="#4BBC66"/>
<path d="M14.2235 16.5092L19.9284 13.2548L22.545 18.025" stroke="#4BBC66"/>
<rect width="14.942" height="7.99962" rx="2" transform="matrix(0.993309 0.115487 -0.116787 0.993157 7.58008 16.1035)" fill="#4BBC66"/>
<rect width="4.99762" height="5.23452" rx="2" transform="matrix(0.857402 -0.514647 0.505883 0.862602 8.01562 16.3828)" fill="#4BBC66"/>
<rect width="7.11089" height="6.20528" rx="2" transform="matrix(0.857402 -0.514647 0.505883 0.862602 13.7559 16.959)" fill="#4BBC66"/>
<rect x="11.9082" y="5.36133" width="2.41699" height="2.442" rx="1.2085" transform="rotate(10.3237 11.9082 5.36133)" fill="#4BBC66"/>
</svg>
