<svg width="20" height="16" viewBox="0 0 20 16" fill="none" xmlns="http://www.w3.org/2000/svg">
<path d="M18.334 5.90846H14.3423L10.6923 0.441797C10.534 0.208464 10.2673 0.0917969 10.0007 0.0917969C9.73398 0.0917969 9.46732 0.208464 9.30898 0.45013L5.65898 5.90846H1.66732C1.20898 5.90846 0.833984 6.28346 0.833984 6.7418C0.833984 6.8168 0.842318 6.8918 0.867318 6.9668L2.98398 14.6918C3.17565 15.3918 3.81732 15.9085 4.58398 15.9085H15.4173C16.184 15.9085 16.8256 15.3918 17.0256 14.6918L19.1423 6.9668L19.1673 6.7418C19.1673 6.28346 18.7923 5.90846 18.334 5.90846ZM10.0007 2.40846L12.334 5.90846H7.66732L10.0007 2.40846ZM15.4173 14.2418L4.59232 14.2501L2.75898 7.57513H17.2507L15.4173 14.2418ZM10.0007 9.2418C9.08398 9.2418 8.33398 9.9918 8.33398 10.9085C8.33398 11.8251 9.08398 12.5751 10.0007 12.5751C10.9173 12.5751 11.6673 11.8251 11.6673 10.9085C11.6673 9.9918 10.9173 9.2418 10.0007 9.2418Z" fill="#8B96A5"/>
</svg>
