<svg width="20" height="20" viewBox="0 0 20 20" fill="none" xmlns="http://www.w3.org/2000/svg">
<path d="M9.99102 1.66699C5.39102 1.66699 1.66602 5.40033 1.66602 10.0003C1.66602 14.6003 5.39102 18.3337 9.99102 18.3337C14.5993 18.3337 18.3327 14.6003 18.3327 10.0003C18.3327 5.40033 14.5993 1.66699 9.99102 1.66699ZM15.766 6.66699H13.3077C13.041 5.62533 12.6577 4.62533 12.1577 3.70033C13.691 4.22533 14.966 5.29199 15.766 6.66699ZM9.99935 3.36699C10.691 4.36699 11.2327 5.47533 11.591 6.66699H8.40768C8.76602 5.47533 9.30768 4.36699 9.99935 3.36699ZM3.54935 11.667C3.41602 11.1337 3.33268 10.5753 3.33268 10.0003C3.33268 9.42533 3.41602 8.86699 3.54935 8.33366H6.36602C6.29935 8.88366 6.24935 9.43366 6.24935 10.0003C6.24935 10.567 6.29935 11.117 6.36602 11.667H3.54935ZM4.23268 13.3337H6.69102C6.95768 14.3753 7.34102 15.3753 7.84102 16.3003C6.30768 15.7753 5.03268 14.717 4.23268 13.3337ZM6.69102 6.66699H4.23268C5.03268 5.28366 6.30768 4.22533 7.84102 3.70033C7.34102 4.62533 6.95768 5.62533 6.69102 6.66699ZM9.99935 16.6337C9.30768 15.6337 8.76602 14.5253 8.40768 13.3337H11.591C11.2327 14.5253 10.691 15.6337 9.99935 16.6337ZM11.9493 11.667H8.04935C7.97435 11.117 7.91602 10.567 7.91602 10.0003C7.91602 9.43366 7.97435 8.87533 8.04935 8.33366H11.9493C12.0243 8.87533 12.0827 9.43366 12.0827 10.0003C12.0827 10.567 12.0243 11.117 11.9493 11.667ZM12.1577 16.3003C12.6577 15.3753 13.041 14.3753 13.3077 13.3337H15.766C14.966 14.7087 13.691 15.7753 12.1577 16.3003ZM13.6327 11.667C13.6994 11.117 13.7493 10.567 13.7493 10.0003C13.7493 9.43366 13.6994 8.88366 13.6327 8.33366H16.4493C16.5827 8.86699 16.666 9.42533 16.666 10.0003C16.666 10.5753 16.5827 11.1337 16.4493 11.667H13.6327Z" fill="#8B96A5"/>
</svg>
