<svg width="16" height="16" viewBox="0 0 16 16" fill="none" xmlns="http://www.w3.org/2000/svg">
<path d="M10.0131 5.09903L10.0121 5.098C9.82208 4.90833 9.73889 4.70585 9.73889 4.44444V1.77778C9.73889 1.51633 9.82213 1.31328 10.0126 1.12282C10.2022 0.933254 10.4048 0.85 10.6667 0.85H14.2222C14.4839 0.85 14.687 0.933171 14.8772 1.12288C15.0669 1.31307 15.15 1.51613 15.15 1.77778V4.44444C15.15 4.70632 15.0667 4.90895 14.8772 5.09851C14.6867 5.28898 14.4837 5.37222 14.2222 5.37222H10.6667C10.4053 5.37222 10.2028 5.28903 10.0131 5.09903ZM1.77778 15.15C1.51613 15.15 1.31307 15.0669 1.12288 14.8772C0.933171 14.687 0.85 14.4839 0.85 14.2222V1.77778C0.85 1.5161 0.933153 1.31302 1.12282 1.12282C1.31302 0.933153 1.5161 0.85 1.77778 0.85H5.33333C5.59504 0.85 5.79813 0.933171 5.98836 1.12288C6.17798 1.31307 6.26111 1.51613 6.26111 1.77778V14.2222C6.26111 14.4839 6.17793 14.687 5.98821 14.8773C5.79803 15.0669 5.59498 15.15 5.33333 15.15H1.77778ZM10.6667 15.15C10.4048 15.15 10.2022 15.0667 10.0126 14.8772C9.82213 14.6867 9.73889 14.4837 9.73889 14.2222V9.77778C9.73889 9.51633 9.82213 9.31328 10.0126 9.12282C10.2022 8.93325 10.4048 8.85 10.6667 8.85H14.2222C14.4839 8.85 14.687 8.93315 14.8772 9.12282C15.0668 9.31302 15.15 9.5161 15.15 9.77778V14.2222C15.15 14.4839 15.0668 14.687 14.8772 14.8772C14.687 15.0668 14.4839 15.15 14.2222 15.15H10.6667Z" stroke="white" stroke-width="1.7"/>
</svg>
