<svg width="17" height="15" viewBox="0 0 17 15" fill="none" xmlns="http://www.w3.org/2000/svg">
<path fill-rule="evenodd" clip-rule="evenodd" d="M4.00391 4.8046C4.00391 4.36239 4.36239 4.00391 4.8046 4.00391H11.2102C11.6524 4.00391 12.0108 4.36239 12.0108 4.8046C12.0108 5.24681 11.6524 5.60529 11.2102 5.60529H4.8046C4.36239 5.60529 4.00391 5.24681 4.00391 4.8046Z" fill="white"/>
<path fill-rule="evenodd" clip-rule="evenodd" d="M4.00391 8.00675C4.00391 7.56454 4.36239 7.20605 4.8046 7.20605H8.00738C8.44959 7.20605 8.80807 7.56454 8.80807 8.00675C8.80807 8.44896 8.44959 8.80744 8.00738 8.80744H4.8046C4.36239 8.80744 4.00391 8.44896 4.00391 8.00675Z" fill="white"/>
<path fill-rule="evenodd" clip-rule="evenodd" d="M3.77898 11.5809C4.06678 11.3411 4.42954 11.2097 4.80417 11.2097H13.6118C14.054 11.2097 14.4125 10.8512 14.4125 10.409V2.40208C14.4125 1.95987 14.054 1.60139 13.6118 1.60139H2.40208C1.95987 1.60139 1.60139 1.95987 1.60139 2.40208V13.3955L3.77898 11.5809ZM4.80417 12.8111H13.6118C14.9384 12.8111 16.0139 11.7357 16.0139 10.409V2.40208C16.0139 1.07545 14.9384 0 13.6118 0H2.40208C1.07545 0 0 1.07545 0 2.40208V13.3955C0 14.7533 1.58354 15.495 2.62657 14.6258L4.80417 12.8111Z" fill="white"/>
</svg>
