<svg xmlns="http://www.w3.org/2000/svg" width="16" height="16" viewBox="0 0 16 16" fill="none">
  <path d="M10.2582 6.24012C10.1131 6.24027 9.97397 6.29656 9.87142 6.39663C9.76887 6.4967 9.71127 6.63236 9.71127 6.77381C9.71127 7.19814 9.53835 7.60509 9.23054 7.90513C8.92274 8.20518 8.50527 8.37374 8.06997 8.37374C7.63467 8.37374 7.2172 8.20518 6.9094 7.90513C6.60159 7.60509 6.42867 7.19814 6.42867 6.77381C6.43107 6.70229 6.4187 6.63104 6.39228 6.56427C6.36586 6.49751 6.32594 6.43661 6.27489 6.3852C6.22384 6.33378 6.16271 6.29289 6.09512 6.26497C6.02754 6.23705 5.95488 6.22266 5.88147 6.22266C5.80807 6.22266 5.73541 6.23705 5.66783 6.26497C5.60024 6.29289 5.53911 6.33378 5.48806 6.3852C5.43701 6.43661 5.39709 6.49751 5.37067 6.56427C5.34425 6.63104 5.33188 6.70229 5.33428 6.77381C5.33428 7.48108 5.6225 8.15937 6.13554 8.65949C6.64859 9.1596 7.34442 9.44056 8.06997 9.44056C8.79552 9.44056 9.49136 9.1596 10.0044 8.65949C10.5174 8.15937 10.8057 7.48108 10.8057 6.77381C10.8057 6.63227 10.748 6.49652 10.6453 6.39643C10.5426 6.29635 10.4034 6.24012 10.2582 6.24012Z" fill="#808191"/>
  <path d="M15.9909 15.1747L14.5038 4.41263C14.45 4.04211 14.1275 3.77263 13.7333 3.77263H11.225V3.03158C11.225 1.36421 9.77372 0 7.99996 0C6.22619 0 4.77492 1.36421 4.77492 3.03158V3.77263H2.26657C1.87239 3.77263 1.53197 4.04211 1.49614 4.41263L0.00904315 15.1747C-0.0267905 15.3768 0.0448768 15.5958 0.206128 15.7474C0.349463 15.8989 0.564465 16 0.797384 16H15.2204C15.4534 16 15.6684 15.9158 15.8117 15.7474C15.955 15.5958 16.0267 15.3768 15.9909 15.1747ZM6.35161 3.03158C6.35161 2.17263 7.0862 1.48211 7.99996 1.48211C8.91372 1.48211 9.64831 2.17263 9.64831 3.03158V3.77263H6.35161V3.03158ZM1.67531 14.5179L2.94741 5.23789H13.0346L14.3067 14.5179H1.67531Z" fill="#808191"/>
</svg>