<svg width="18" height="18" viewBox="0 0 18 18" fill="none" xmlns="http://www.w3.org/2000/svg">
<path d="M1.43555 4.138C1.43555 4.73816 1.61631 5.32484 1.95499 5.82386C2.29366 6.32288 2.77504 6.71182 3.33823 6.94149C3.90143 7.17116 4.52115 7.23126 5.11904 7.11417C5.71692 6.99708 6.26612 6.70808 6.69717 6.2837C7.12822 5.85932 7.42177 5.31862 7.5407 4.72999C7.65962 4.14136 7.59859 3.53123 7.3653 2.97675C7.13202 2.42227 6.73697 1.94835 6.2301 1.61492C5.72324 1.28148 5.12733 1.10352 4.51773 1.10352C3.70029 1.10352 2.91632 1.42322 2.3383 1.99229C1.76028 2.56137 1.43555 3.3332 1.43555 4.138ZM5.91873 4.138C5.91873 4.4108 5.83656 4.67747 5.68262 4.9043C5.52867 5.13113 5.30987 5.30791 5.05387 5.41231C4.79787 5.51671 4.51618 5.54402 4.24441 5.4908C3.97265 5.43758 3.72301 5.30621 3.52708 5.11332C3.33115 4.92042 3.19772 4.67465 3.14366 4.40709C3.0896 4.13953 3.11735 3.86219 3.22338 3.61016C3.32942 3.35812 3.50899 3.1427 3.73938 2.99114C3.96977 2.83958 4.24064 2.75869 4.51773 2.75869C4.8893 2.75869 5.24565 2.90401 5.50839 3.16268C5.77112 3.42135 5.91873 3.77218 5.91873 4.138Z" fill="white"/>
<path d="M16.5648 13.8616C16.5648 13.2615 16.384 12.6748 16.0453 12.1758C15.7066 11.6767 15.2253 11.2878 14.6621 11.0581C14.0989 10.8285 13.4792 10.7684 12.8813 10.8855C12.2834 11.0025 11.7342 11.2915 11.3031 11.7159C10.8721 12.1403 10.5785 12.681 10.4596 13.2696C10.3407 13.8583 10.4017 14.4684 10.635 15.0229C10.8683 15.5774 11.2633 16.0513 11.7702 16.3847C12.2771 16.7181 12.873 16.8961 13.4826 16.8961C14.3 16.8961 15.084 16.5764 15.662 16.0073C16.24 15.4383 16.5648 14.6664 16.5648 13.8616ZM12.0816 13.8616C12.0816 13.5888 12.1638 13.3222 12.3177 13.0953C12.4716 12.8685 12.6904 12.6917 12.9464 12.5873C13.2024 12.4829 13.4841 12.4556 13.7559 12.5088C14.0277 12.562 14.2773 12.6934 14.4732 12.8863C14.6692 13.0792 14.8026 13.325 14.8567 13.5925C14.9107 13.8601 14.883 14.1374 14.7769 14.3895C14.6709 14.6415 14.4913 14.8569 14.2609 15.0085C14.0305 15.16 13.7597 15.2409 13.4826 15.2409C13.111 15.2409 12.7547 15.0956 12.4919 14.837C12.2292 14.5783 12.0816 14.2274 12.0816 13.8616Z" fill="white"/>
<path d="M2.83561 11.9969V14.9652C2.83561 15.5505 3.07178 16.1119 3.49216 16.5257C3.91254 16.9396 4.48269 17.1721 5.0772 17.1721H8.99998V15.5169H5.0772C4.92857 15.5169 4.78603 15.4588 4.68094 15.3554C4.57584 15.2519 4.5168 15.1115 4.5168 14.9652V11.9969L6.16437 13.619L7.35241 12.4494L4.27023 9.41488C4.11262 9.2599 3.89897 9.17285 3.67621 9.17285C3.45345 9.17285 3.2398 9.2599 3.08219 9.41488L0 12.4494L1.18804 13.619L2.83561 11.9969Z" fill="white"/>
<path d="M15.1644 6.00329V3.03502C15.1644 2.44972 14.9282 1.88838 14.5078 1.47451C14.0874 1.06064 13.5173 0.828125 12.9228 0.828125H9V2.4833H12.9228C13.0714 2.4833 13.2139 2.54142 13.319 2.64489C13.4241 2.74836 13.4832 2.88869 13.4832 3.03502V6.00329L11.8356 4.38123L10.6476 5.55088L13.7298 8.58536C13.8874 8.74034 14.101 8.82739 14.3238 8.82739C14.5465 8.82739 14.7602 8.74034 14.9178 8.58536L18 5.55088L16.8119 4.38123L15.1644 6.00329Z" fill="white"/>
</svg>
